ISO-10303-21;
HEADER;
/* Generated by software containing ST-Developer
 * from STEP Tools, Inc. (www.steptools.com) 
 */

FILE_DESCRIPTION(
/* description */ (''),
/* implementation_level */ '2;1');

FILE_NAME(
/* name */ 'USB Hub Case Part 2.step',
/* time_stamp */ '2026-05-01T18:25:18+10:00',
/* author */ (''),
/* organization */ (''),
/* preprocessor_version */ 'ST-DEVELOPER v20.1',
/* originating_system */ 'Autodesk Translation Framework v15.8.0.0',
/* authorisation */ '');

FILE_SCHEMA (('AUTOMOTIVE_DESIGN { 1 0 10303 214 3 1 1 }'));
ENDSEC;

DATA;
#10=MECHANICAL_DESIGN_GEOMETRIC_PRESENTATION_REPRESENTATION('',(#13),#1492);
#11=SHAPE_REPRESENTATION_RELATIONSHIP('SRR','None',#1498,#12);
#12=ADVANCED_BREP_SHAPE_REPRESENTATION('',(#14),#1491);
#13=STYLED_ITEM('',(#1507),#14);
#14=MANIFOLD_SOLID_BREP('Body3',#856);
#15=FACE_BOUND('',#108,.T.);
#16=FACE_BOUND('',#109,.T.);
#17=FACE_BOUND('',#110,.T.);
#18=FACE_BOUND('',#111,.T.);
#19=FACE_BOUND('',#112,.T.);
#20=FACE_BOUND('',#119,.T.);
#21=PLANE('',#861);
#22=PLANE('',#865);
#23=PLANE('',#869);
#24=PLANE('',#873);
#25=PLANE('',#874);
#26=PLANE('',#878);
#27=PLANE('',#882);
#28=PLANE('',#886);
#29=PLANE('',#893);
#30=PLANE('',#900);
#31=PLANE('',#926);
#32=PLANE('',#927);
#33=PLANE('',#943);
#34=PLANE('',#945);
#35=PLANE('',#947);
#36=PLANE('',#949);
#37=PLANE('',#951);
#38=PLANE('',#955);
#39=PLANE('',#958);
#40=FACE_OUTER_BOUND('',#87,.T.);
#41=FACE_OUTER_BOUND('',#88,.T.);
#42=FACE_OUTER_BOUND('',#89,.T.);
#43=FACE_OUTER_BOUND('',#90,.T.);
#44=FACE_OUTER_BOUND('',#91,.T.);
#45=FACE_OUTER_BOUND('',#92,.T.);
#46=FACE_OUTER_BOUND('',#93,.T.);
#47=FACE_OUTER_BOUND('',#94,.T.);
#48=FACE_OUTER_BOUND('',#95,.T.);
#49=FACE_OUTER_BOUND('',#96,.T.);
#50=FACE_OUTER_BOUND('',#97,.T.);
#51=FACE_OUTER_BOUND('',#98,.T.);
#52=FACE_OUTER_BOUND('',#99,.T.);
#53=FACE_OUTER_BOUND('',#100,.T.);
#54=FACE_OUTER_BOUND('',#101,.T.);
#55=FACE_OUTER_BOUND('',#102,.T.);
#56=FACE_OUTER_BOUND('',#103,.T.);
#57=FACE_OUTER_BOUND('',#104,.T.);
#58=FACE_OUTER_BOUND('',#105,.T.);
#59=FACE_OUTER_BOUND('',#106,.T.);
#60=FACE_OUTER_BOUND('',#107,.T.);
#61=FACE_OUTER_BOUND('',#113,.T.);
#62=FACE_OUTER_BOUND('',#114,.T.);
#63=FACE_OUTER_BOUND('',#115,.T.);
#64=FACE_OUTER_BOUND('',#116,.T.);
#65=FACE_OUTER_BOUND('',#117,.T.);
#66=FACE_OUTER_BOUND('',#118,.T.);
#67=FACE_OUTER_BOUND('',#120,.T.);
#68=FACE_OUTER_BOUND('',#121,.T.);
#69=FACE_OUTER_BOUND('',#122,.T.);
#70=FACE_OUTER_BOUND('',#123,.T.);
#71=FACE_OUTER_BOUND('',#124,.T.);
#72=FACE_OUTER_BOUND('',#125,.T.);
#73=FACE_OUTER_BOUND('',#126,.T.);
#74=FACE_OUTER_BOUND('',#127,.T.);
#75=FACE_OUTER_BOUND('',#128,.T.);
#76=FACE_OUTER_BOUND('',#129,.T.);
#77=FACE_OUTER_BOUND('',#130,.T.);
#78=FACE_OUTER_BOUND('',#131,.T.);
#79=FACE_OUTER_BOUND('',#132,.T.);
#80=FACE_OUTER_BOUND('',#133,.T.);
#81=FACE_OUTER_BOUND('',#134,.T.);
#82=FACE_OUTER_BOUND('',#135,.T.);
#83=FACE_OUTER_BOUND('',#136,.T.);
#84=FACE_OUTER_BOUND('',#137,.T.);
#85=FACE_OUTER_BOUND('',#138,.T.);
#86=FACE_OUTER_BOUND('',#139,.T.);
#87=EDGE_LOOP('',(#535,#536,#537,#538));
#88=EDGE_LOOP('',(#539));
#89=EDGE_LOOP('',(#540,#541,#542,#543));
#90=EDGE_LOOP('',(#544));
#91=EDGE_LOOP('',(#545,#546,#547,#548));
#92=EDGE_LOOP('',(#549));
#93=EDGE_LOOP('',(#550,#551,#552,#553));
#94=EDGE_LOOP('',(#554));
#95=EDGE_LOOP('',(#555,#556,#557,#558));
#96=EDGE_LOOP('',(#559,#560,#561,#562));
#97=EDGE_LOOP('',(#563,#564,#565,#566));
#98=EDGE_LOOP('',(#567,#568,#569,#570));
#99=EDGE_LOOP('',(#571,#572,#573,#574));
#100=EDGE_LOOP('',(#575,#576,#577,#578));
#101=EDGE_LOOP('',(#579,#580,#581,#582));
#102=EDGE_LOOP('',(#583,#584,#585,#586));
#103=EDGE_LOOP('',(#587,#588,#589,#590));
#104=EDGE_LOOP('',(#591,#592,#593,#594));
#105=EDGE_LOOP('',(#595,#596,#597,#598));
#106=EDGE_LOOP('',(#599,#600,#601,#602));
#107=EDGE_LOOP('',(#603,#604,#605,#606,#607,#608,#609,#610,#611,#612,#613,
#614,#615,#616,#617,#618,#619,#620,#621,#622,#623,#624,#625,#626,#627,#628,
#629,#630,#631));
#108=EDGE_LOOP('',(#632));
#109=EDGE_LOOP('',(#633));
#110=EDGE_LOOP('',(#634));
#111=EDGE_LOOP('',(#635));
#112=EDGE_LOOP('',(#636,#637,#638,#639,#640,#641,#642,#643));
#113=EDGE_LOOP('',(#644,#645,#646,#647));
#114=EDGE_LOOP('',(#648,#649,#650,#651));
#115=EDGE_LOOP('',(#652,#653,#654,#655));
#116=EDGE_LOOP('',(#656,#657,#658,#659));
#117=EDGE_LOOP('',(#660,#661,#662,#663));
#118=EDGE_LOOP('',(#664,#665,#666,#667,#668,#669,#670,#671,#672,#673,#674,
#675,#676,#677,#678,#679,#680,#681,#682,#683,#684,#685,#686,#687,#688,#689,
#690,#691,#692));
#119=EDGE_LOOP('',(#693,#694,#695,#696,#697,#698,#699,#700));
#120=EDGE_LOOP('',(#701,#702,#703,#704));
#121=EDGE_LOOP('',(#705,#706,#707,#708));
#122=EDGE_LOOP('',(#709,#710,#711,#712));
#123=EDGE_LOOP('',(#713,#714,#715,#716));
#124=EDGE_LOOP('',(#717,#718,#719,#720));
#125=EDGE_LOOP('',(#721,#722,#723,#724));
#126=EDGE_LOOP('',(#725,#726,#727,#728));
#127=EDGE_LOOP('',(#729,#730,#731,#732));
#128=EDGE_LOOP('',(#733,#734,#735,#736));
#129=EDGE_LOOP('',(#737,#738,#739,#740));
#130=EDGE_LOOP('',(#741,#742,#743,#744));
#131=EDGE_LOOP('',(#745,#746,#747,#748));
#132=EDGE_LOOP('',(#749,#750,#751,#752));
#133=EDGE_LOOP('',(#753,#754,#755,#756));
#134=EDGE_LOOP('',(#757,#758,#759,#760));
#135=EDGE_LOOP('',(#761,#762,#763,#764));
#136=EDGE_LOOP('',(#765,#766,#767,#768));
#137=EDGE_LOOP('',(#769,#770,#771,#772));
#138=EDGE_LOOP('',(#773,#774,#775,#776));
#139=EDGE_LOOP('',(#777,#778,#779,#780));
#140=LINE('',#1241,#207);
#141=LINE('',#1248,#208);
#142=LINE('',#1255,#209);
#143=LINE('',#1262,#210);
#144=LINE('',#1268,#211);
#145=LINE('',#1270,#212);
#146=LINE('',#1272,#213);
#147=LINE('',#1273,#214);
#148=LINE('',#1279,#215);
#149=LINE('',#1282,#216);
#150=LINE('',#1284,#217);
#151=LINE('',#1285,#218);
#152=LINE('',#1291,#219);
#153=LINE('',#1294,#220);
#154=LINE('',#1296,#221);
#155=LINE('',#1297,#222);
#156=LINE('',#1302,#223);
#157=LINE('',#1306,#224);
#158=LINE('',#1308,#225);
#159=LINE('',#1309,#226);
#160=LINE('',#1318,#227);
#161=LINE('',#1321,#228);
#162=LINE('',#1324,#229);
#163=LINE('',#1326,#230);
#164=LINE('',#1327,#231);
#165=LINE('',#1333,#232);
#166=LINE('',#1338,#233);
#167=LINE('',#1344,#234);
#168=LINE('',#1350,#235);
#169=LINE('',#1360,#236);
#170=LINE('',#1370,#237);
#171=LINE('',#1374,#238);
#172=LINE('',#1378,#239);
#173=LINE('',#1382,#240);
#174=LINE('',#1386,#241);
#175=LINE('',#1392,#242);
#176=LINE('',#1395,#243);
#177=LINE('',#1398,#244);
#178=LINE('',#1402,#245);
#179=LINE('',#1405,#246);
#180=LINE('',#1409,#247);
#181=LINE('',#1411,#248);
#182=LINE('',#1418,#249);
#183=LINE('',#1422,#250);
#184=LINE('',#1426,#251);
#185=LINE('',#1430,#252);
#186=LINE('',#1434,#253);
#187=LINE('',#1443,#254);
#188=LINE('',#1449,#255);
#189=LINE('',#1452,#256);
#190=LINE('',#1454,#257);
#191=LINE('',#1456,#258);
#192=LINE('',#1458,#259);
#193=LINE('',#1460,#260);
#194=LINE('',#1462,#261);
#195=LINE('',#1464,#262);
#196=LINE('',#1466,#263);
#197=LINE('',#1468,#264);
#198=LINE('',#1470,#265);
#199=LINE('',#1472,#266);
#200=LINE('',#1474,#267);
#201=LINE('',#1477,#268);
#202=LINE('',#1479,#269);
#203=LINE('',#1481,#270);
#204=LINE('',#1483,#271);
#205=LINE('',#1485,#272);
#206=LINE('',#1487,#273);
#207=VECTOR('',#967,0.51747170223714);
#208=VECTOR('',#976,0.499665207794324);
#209=VECTOR('',#985,0.528069511732066);
#210=VECTOR('',#994,0.470237552424906);
#211=VECTOR('',#1001,10.);
#212=VECTOR('',#1002,10.);
#213=VECTOR('',#1003,10.);
#214=VECTOR('',#1004,10.);
#215=VECTOR('',#1011,10.);
#216=VECTOR('',#1014,10.);
#217=VECTOR('',#1015,10.);
#218=VECTOR('',#1016,10.);
#219=VECTOR('',#1023,10.);
#220=VECTOR('',#1026,10.);
#221=VECTOR('',#1027,10.);
#222=VECTOR('',#1028,10.);
#223=VECTOR('',#1033,10.);
#224=VECTOR('',#1038,10.);
#225=VECTOR('',#1039,10.);
#226=VECTOR('',#1040,10.);
#227=VECTOR('',#1051,10.);
#228=VECTOR('',#1054,10.);
#229=VECTOR('',#1057,10.);
#230=VECTOR('',#1058,10.);
#231=VECTOR('',#1059,10.);
#232=VECTOR('',#1066,10.);
#233=VECTOR('',#1071,10.);
#234=VECTOR('',#1078,10.3765);
#235=VECTOR('',#1083,10.3765);
#236=VECTOR('',#1092,10.);
#237=VECTOR('',#1101,10.);
#238=VECTOR('',#1104,10.);
#239=VECTOR('',#1107,10.);
#240=VECTOR('',#1110,10.);
#241=VECTOR('',#1113,10.);
#242=VECTOR('',#1120,0.6);
#243=VECTOR('',#1123,0.6);
#244=VECTOR('',#1126,10.);
#245=VECTOR('',#1131,2.25);
#246=VECTOR('',#1134,2.25);
#247=VECTOR('',#1139,10.);
#248=VECTOR('',#1142,10.);
#249=VECTOR('',#1149,10.);
#250=VECTOR('',#1152,10.);
#251=VECTOR('',#1155,10.);
#252=VECTOR('',#1158,10.);
#253=VECTOR('',#1161,10.);
#254=VECTOR('',#1170,10.3765);
#255=VECTOR('',#1175,10.3765);
#256=VECTOR('',#1180,10.);
#257=VECTOR('',#1183,10.);
#258=VECTOR('',#1186,10.);
#259=VECTOR('',#1189,10.);
#260=VECTOR('',#1192,10.);
#261=VECTOR('',#1195,10.);
#262=VECTOR('',#1198,10.);
#263=VECTOR('',#1201,10.);
#264=VECTOR('',#1204,10.);
#265=VECTOR('',#1207,10.);
#266=VECTOR('',#1210,10.);
#267=VECTOR('',#1213,10.);
#268=VECTOR('',#1218,10.);
#269=VECTOR('',#1221,10.);
#270=VECTOR('',#1224,10.);
#271=VECTOR('',#1227,10.);
#272=VECTOR('',#1230,10.);
#273=VECTOR('',#1233,10.);
#274=CIRCLE('',#859,0.51747170223714);
#275=CIRCLE('',#860,0.51747170223714);
#276=CIRCLE('',#863,0.499665207794324);
#277=CIRCLE('',#864,0.499665207794324);
#278=CIRCLE('',#867,0.528069511732066);
#279=CIRCLE('',#868,0.528069511732066);
#280=CIRCLE('',#871,0.470237552424906);
#281=CIRCLE('',#872,0.470237552424906);
#282=CIRCLE('',#876,2.00000508001);
#283=CIRCLE('',#877,2.00000508001);
#284=CIRCLE('',#880,2.00000508001);
#285=CIRCLE('',#881,2.00000508001);
#286=CIRCLE('',#884,2.00000508001);
#287=CIRCLE('',#885,2.00000508001);
#288=CIRCLE('',#888,2.00000508001);
#289=CIRCLE('',#889,2.00000508001);
#290=CIRCLE('',#891,1.);
#291=CIRCLE('',#892,1.);
#292=CIRCLE('',#895,1.);
#293=CIRCLE('',#896,1.);
#294=CIRCLE('',#898,0.0999999999999979);
#295=CIRCLE('',#899,0.0999999999999979);
#296=CIRCLE('',#901,0.1);
#297=CIRCLE('',#902,4.5);
#298=CIRCLE('',#903,0.5);
#299=CIRCLE('',#904,6.);
#300=CIRCLE('',#905,3.5);
#301=CIRCLE('',#906,2.25);
#302=CIRCLE('',#907,0.4);
#303=CIRCLE('',#908,0.4);
#304=CIRCLE('',#909,0.6);
#305=CIRCLE('',#910,1.50000000000001);
#306=CIRCLE('',#911,3.75);
#307=CIRCLE('',#912,9.50000000000002);
#308=CIRCLE('',#913,3.);
#309=CIRCLE('',#914,6.00000000000009);
#310=CIRCLE('',#915,5.99999999999988);
#311=CIRCLE('',#916,14.75);
#312=CIRCLE('',#917,3.00000000000006);
#313=CIRCLE('',#919,0.6);
#314=CIRCLE('',#921,0.4);
#315=CIRCLE('',#923,2.25);
#316=CIRCLE('',#925,0.4);
#317=CIRCLE('',#928,3.00000000000006);
#318=CIRCLE('',#929,14.75);
#319=CIRCLE('',#930,5.99999999999988);
#320=CIRCLE('',#931,6.00000000000009);
#321=CIRCLE('',#932,3.);
#322=CIRCLE('',#933,9.50000000000002);
#323=CIRCLE('',#934,3.75);
#324=CIRCLE('',#935,1.50000000000001);
#325=CIRCLE('',#936,3.5);
#326=CIRCLE('',#937,6.);
#327=CIRCLE('',#938,0.5);
#328=CIRCLE('',#939,4.5);
#329=CIRCLE('',#940,0.1);
#330=VERTEX_POINT('',#1238);
#331=VERTEX_POINT('',#1240);
#332=VERTEX_POINT('',#1245);
#333=VERTEX_POINT('',#1247);
#334=VERTEX_POINT('',#1252);
#335=VERTEX_POINT('',#1254);
#336=VERTEX_POINT('',#1259);
#337=VERTEX_POINT('',#1261);
#338=VERTEX_POINT('',#1266);
#339=VERTEX_POINT('',#1267);
#340=VERTEX_POINT('',#1269);
#341=VERTEX_POINT('',#1271);
#342=VERTEX_POINT('',#1275);
#343=VERTEX_POINT('',#1277);
#344=VERTEX_POINT('',#1281);
#345=VERTEX_POINT('',#1283);
#346=VERTEX_POINT('',#1287);
#347=VERTEX_POINT('',#1289);
#348=VERTEX_POINT('',#1293);
#349=VERTEX_POINT('',#1295);
#350=VERTEX_POINT('',#1299);
#351=VERTEX_POINT('',#1301);
#352=VERTEX_POINT('',#1305);
#353=VERTEX_POINT('',#1307);
#354=VERTEX_POINT('',#1314);
#355=VERTEX_POINT('',#1315);
#356=VERTEX_POINT('',#1317);
#357=VERTEX_POINT('',#1319);
#358=VERTEX_POINT('',#1323);
#359=VERTEX_POINT('',#1325);
#360=VERTEX_POINT('',#1329);
#361=VERTEX_POINT('',#1331);
#362=VERTEX_POINT('',#1335);
#363=VERTEX_POINT('',#1337);
#364=VERTEX_POINT('',#1341);
#365=VERTEX_POINT('',#1343);
#366=VERTEX_POINT('',#1345);
#367=VERTEX_POINT('',#1347);
#368=VERTEX_POINT('',#1349);
#369=VERTEX_POINT('',#1351);
#370=VERTEX_POINT('',#1353);
#371=VERTEX_POINT('',#1355);
#372=VERTEX_POINT('',#1357);
#373=VERTEX_POINT('',#1359);
#374=VERTEX_POINT('',#1361);
#375=VERTEX_POINT('',#1363);
#376=VERTEX_POINT('',#1365);
#377=VERTEX_POINT('',#1367);
#378=VERTEX_POINT('',#1369);
#379=VERTEX_POINT('',#1371);
#380=VERTEX_POINT('',#1373);
#381=VERTEX_POINT('',#1375);
#382=VERTEX_POINT('',#1377);
#383=VERTEX_POINT('',#1379);
#384=VERTEX_POINT('',#1381);
#385=VERTEX_POINT('',#1383);
#386=VERTEX_POINT('',#1385);
#387=VERTEX_POINT('',#1387);
#388=VERTEX_POINT('',#1391);
#389=VERTEX_POINT('',#1393);
#390=VERTEX_POINT('',#1397);
#391=VERTEX_POINT('',#1401);
#392=VERTEX_POINT('',#1403);
#393=VERTEX_POINT('',#1407);
#394=VERTEX_POINT('',#1413);
#395=VERTEX_POINT('',#1415);
#396=VERTEX_POINT('',#1417);
#397=VERTEX_POINT('',#1419);
#398=VERTEX_POINT('',#1421);
#399=VERTEX_POINT('',#1423);
#400=VERTEX_POINT('',#1425);
#401=VERTEX_POINT('',#1427);
#402=VERTEX_POINT('',#1429);
#403=VERTEX_POINT('',#1431);
#404=VERTEX_POINT('',#1433);
#405=VERTEX_POINT('',#1435);
#406=VERTEX_POINT('',#1438);
#407=VERTEX_POINT('',#1440);
#408=VERTEX_POINT('',#1442);
#409=VERTEX_POINT('',#1444);
#410=VERTEX_POINT('',#1446);
#411=VERTEX_POINT('',#1448);
#412=EDGE_CURVE('',#330,#330,#274,.T.);
#413=EDGE_CURVE('',#330,#331,#140,.T.);
#414=EDGE_CURVE('',#331,#331,#275,.T.);
#415=EDGE_CURVE('',#332,#332,#276,.T.);
#416=EDGE_CURVE('',#332,#333,#141,.T.);
#417=EDGE_CURVE('',#333,#333,#277,.T.);
#418=EDGE_CURVE('',#334,#334,#278,.T.);
#419=EDGE_CURVE('',#334,#335,#142,.T.);
#420=EDGE_CURVE('',#335,#335,#279,.T.);
#421=EDGE_CURVE('',#336,#336,#280,.T.);
#422=EDGE_CURVE('',#336,#337,#143,.T.);
#423=EDGE_CURVE('',#337,#337,#281,.T.);
#424=EDGE_CURVE('',#338,#339,#144,.T.);
#425=EDGE_CURVE('',#338,#340,#145,.T.);
#426=EDGE_CURVE('',#341,#340,#146,.T.);
#427=EDGE_CURVE('',#339,#341,#147,.T.);
#428=EDGE_CURVE('',#339,#342,#282,.T.);
#429=EDGE_CURVE('',#343,#341,#283,.T.);
#430=EDGE_CURVE('',#342,#343,#148,.T.);
#431=EDGE_CURVE('',#342,#344,#149,.T.);
#432=EDGE_CURVE('',#345,#343,#150,.T.);
#433=EDGE_CURVE('',#344,#345,#151,.T.);
#434=EDGE_CURVE('',#344,#346,#284,.T.);
#435=EDGE_CURVE('',#347,#345,#285,.T.);
#436=EDGE_CURVE('',#346,#347,#152,.T.);
#437=EDGE_CURVE('',#346,#348,#153,.T.);
#438=EDGE_CURVE('',#349,#347,#154,.T.);
#439=EDGE_CURVE('',#349,#348,#155,.T.);
#440=EDGE_CURVE('',#350,#338,#286,.T.);
#441=EDGE_CURVE('',#350,#351,#156,.T.);
#442=EDGE_CURVE('',#340,#351,#287,.T.);
#443=EDGE_CURVE('',#352,#350,#157,.T.);
#444=EDGE_CURVE('',#352,#353,#158,.T.);
#445=EDGE_CURVE('',#351,#353,#159,.T.);
#446=EDGE_CURVE('',#348,#352,#288,.T.);
#447=EDGE_CURVE('',#353,#349,#289,.T.);
#448=EDGE_CURVE('',#354,#355,#290,.T.);
#449=EDGE_CURVE('',#355,#356,#160,.T.);
#450=EDGE_CURVE('',#356,#357,#291,.T.);
#451=EDGE_CURVE('',#357,#354,#161,.T.);
#452=EDGE_CURVE('',#355,#358,#162,.T.);
#453=EDGE_CURVE('',#359,#358,#163,.T.);
#454=EDGE_CURVE('',#356,#359,#164,.T.);
#455=EDGE_CURVE('',#360,#359,#292,.T.);
#456=EDGE_CURVE('',#358,#361,#293,.T.);
#457=EDGE_CURVE('',#361,#360,#165,.T.);
#458=EDGE_CURVE('',#361,#362,#294,.T.);
#459=EDGE_CURVE('',#362,#363,#166,.T.);
#460=EDGE_CURVE('',#360,#363,#295,.T.);
#461=EDGE_CURVE('',#354,#364,#296,.T.);
#462=EDGE_CURVE('',#365,#364,#167,.T.);
#463=EDGE_CURVE('',#365,#366,#297,.T.);
#464=EDGE_CURVE('',#366,#367,#298,.T.);
#465=EDGE_CURVE('',#368,#367,#168,.T.);
#466=EDGE_CURVE('',#368,#369,#299,.T.);
#467=EDGE_CURVE('',#369,#370,#300,.T.);
#468=EDGE_CURVE('',#371,#370,#301,.T.);
#469=EDGE_CURVE('',#372,#371,#302,.T.);
#470=EDGE_CURVE('',#372,#373,#169,.T.);
#471=EDGE_CURVE('',#374,#373,#303,.T.);
#472=EDGE_CURVE('',#375,#374,#304,.T.);
#473=EDGE_CURVE('',#376,#375,#305,.T.);
#474=EDGE_CURVE('',#376,#377,#306,.T.);
#475=EDGE_CURVE('',#378,#377,#170,.T.);
#476=EDGE_CURVE('',#379,#378,#307,.T.);
#477=EDGE_CURVE('',#380,#379,#171,.T.);
#478=EDGE_CURVE('',#381,#380,#308,.T.);
#479=EDGE_CURVE('',#382,#381,#172,.T.);
#480=EDGE_CURVE('',#383,#382,#309,.T.);
#481=EDGE_CURVE('',#384,#383,#173,.T.);
#482=EDGE_CURVE('',#385,#384,#310,.T.);
#483=EDGE_CURVE('',#386,#385,#174,.T.);
#484=EDGE_CURVE('',#386,#387,#311,.T.);
#485=EDGE_CURVE('',#362,#387,#312,.T.);
#486=EDGE_CURVE('',#374,#388,#175,.T.);
#487=EDGE_CURVE('',#388,#389,#313,.T.);
#488=EDGE_CURVE('',#389,#375,#176,.T.);
#489=EDGE_CURVE('',#373,#390,#177,.T.);
#490=EDGE_CURVE('',#390,#388,#314,.T.);
#491=EDGE_CURVE('',#370,#391,#178,.T.);
#492=EDGE_CURVE('',#391,#392,#315,.T.);
#493=EDGE_CURVE('',#392,#371,#179,.T.);
#494=EDGE_CURVE('',#392,#393,#316,.T.);
#495=EDGE_CURVE('',#393,#372,#180,.T.);
#496=EDGE_CURVE('',#393,#390,#181,.T.);
#497=EDGE_CURVE('',#363,#394,#317,.T.);
#498=EDGE_CURVE('',#394,#395,#318,.T.);
#499=EDGE_CURVE('',#395,#396,#182,.T.);
#500=EDGE_CURVE('',#396,#397,#319,.T.);
#501=EDGE_CURVE('',#397,#398,#183,.T.);
#502=EDGE_CURVE('',#398,#399,#320,.T.);
#503=EDGE_CURVE('',#399,#400,#184,.T.);
#504=EDGE_CURVE('',#400,#401,#321,.T.);
#505=EDGE_CURVE('',#401,#402,#185,.T.);
#506=EDGE_CURVE('',#402,#403,#322,.T.);
#507=EDGE_CURVE('',#403,#404,#186,.T.);
#508=EDGE_CURVE('',#404,#405,#323,.T.);
#509=EDGE_CURVE('',#405,#389,#324,.T.);
#510=EDGE_CURVE('',#391,#406,#325,.T.);
#511=EDGE_CURVE('',#406,#407,#326,.T.);
#512=EDGE_CURVE('',#407,#408,#187,.T.);
#513=EDGE_CURVE('',#408,#409,#327,.T.);
#514=EDGE_CURVE('',#409,#410,#328,.T.);
#515=EDGE_CURVE('',#410,#411,#188,.T.);
#516=EDGE_CURVE('',#411,#357,#329,.T.);
#517=EDGE_CURVE('',#376,#405,#189,.T.);
#518=EDGE_CURVE('',#377,#404,#190,.T.);
#519=EDGE_CURVE('',#378,#403,#191,.T.);
#520=EDGE_CURVE('',#379,#402,#192,.T.);
#521=EDGE_CURVE('',#380,#401,#193,.T.);
#522=EDGE_CURVE('',#381,#400,#194,.T.);
#523=EDGE_CURVE('',#382,#399,#195,.T.);
#524=EDGE_CURVE('',#383,#398,#196,.T.);
#525=EDGE_CURVE('',#384,#397,#197,.T.);
#526=EDGE_CURVE('',#385,#396,#198,.T.);
#527=EDGE_CURVE('',#386,#395,#199,.T.);
#528=EDGE_CURVE('',#387,#394,#200,.T.);
#529=EDGE_CURVE('',#364,#411,#201,.T.);
#530=EDGE_CURVE('',#365,#410,#202,.T.);
#531=EDGE_CURVE('',#366,#409,#203,.T.);
#532=EDGE_CURVE('',#367,#408,#204,.T.);
#533=EDGE_CURVE('',#368,#407,#205,.T.);
#534=EDGE_CURVE('',#369,#406,#206,.T.);
#535=ORIENTED_EDGE('',*,*,#412,.F.);
#536=ORIENTED_EDGE('',*,*,#413,.T.);
#537=ORIENTED_EDGE('',*,*,#414,.T.);
#538=ORIENTED_EDGE('',*,*,#413,.F.);
#539=ORIENTED_EDGE('',*,*,#414,.F.);
#540=ORIENTED_EDGE('',*,*,#415,.F.);
#541=ORIENTED_EDGE('',*,*,#416,.T.);
#542=ORIENTED_EDGE('',*,*,#417,.T.);
#543=ORIENTED_EDGE('',*,*,#416,.F.);
#544=ORIENTED_EDGE('',*,*,#417,.F.);
#545=ORIENTED_EDGE('',*,*,#418,.F.);
#546=ORIENTED_EDGE('',*,*,#419,.T.);
#547=ORIENTED_EDGE('',*,*,#420,.T.);
#548=ORIENTED_EDGE('',*,*,#419,.F.);
#549=ORIENTED_EDGE('',*,*,#420,.F.);
#550=ORIENTED_EDGE('',*,*,#421,.F.);
#551=ORIENTED_EDGE('',*,*,#422,.T.);
#552=ORIENTED_EDGE('',*,*,#423,.T.);
#553=ORIENTED_EDGE('',*,*,#422,.F.);
#554=ORIENTED_EDGE('',*,*,#423,.F.);
#555=ORIENTED_EDGE('',*,*,#424,.F.);
#556=ORIENTED_EDGE('',*,*,#425,.T.);
#557=ORIENTED_EDGE('',*,*,#426,.F.);
#558=ORIENTED_EDGE('',*,*,#427,.F.);
#559=ORIENTED_EDGE('',*,*,#428,.F.);
#560=ORIENTED_EDGE('',*,*,#427,.T.);
#561=ORIENTED_EDGE('',*,*,#429,.F.);
#562=ORIENTED_EDGE('',*,*,#430,.F.);
#563=ORIENTED_EDGE('',*,*,#431,.F.);
#564=ORIENTED_EDGE('',*,*,#430,.T.);
#565=ORIENTED_EDGE('',*,*,#432,.F.);
#566=ORIENTED_EDGE('',*,*,#433,.F.);
#567=ORIENTED_EDGE('',*,*,#434,.F.);
#568=ORIENTED_EDGE('',*,*,#433,.T.);
#569=ORIENTED_EDGE('',*,*,#435,.F.);
#570=ORIENTED_EDGE('',*,*,#436,.F.);
#571=ORIENTED_EDGE('',*,*,#437,.F.);
#572=ORIENTED_EDGE('',*,*,#436,.T.);
#573=ORIENTED_EDGE('',*,*,#438,.F.);
#574=ORIENTED_EDGE('',*,*,#439,.T.);
#575=ORIENTED_EDGE('',*,*,#440,.F.);
#576=ORIENTED_EDGE('',*,*,#441,.T.);
#577=ORIENTED_EDGE('',*,*,#442,.F.);
#578=ORIENTED_EDGE('',*,*,#425,.F.);
#579=ORIENTED_EDGE('',*,*,#443,.F.);
#580=ORIENTED_EDGE('',*,*,#444,.T.);
#581=ORIENTED_EDGE('',*,*,#445,.F.);
#582=ORIENTED_EDGE('',*,*,#441,.F.);
#583=ORIENTED_EDGE('',*,*,#446,.F.);
#584=ORIENTED_EDGE('',*,*,#439,.F.);
#585=ORIENTED_EDGE('',*,*,#447,.F.);
#586=ORIENTED_EDGE('',*,*,#444,.F.);
#587=ORIENTED_EDGE('',*,*,#448,.T.);
#588=ORIENTED_EDGE('',*,*,#449,.T.);
#589=ORIENTED_EDGE('',*,*,#450,.T.);
#590=ORIENTED_EDGE('',*,*,#451,.T.);
#591=ORIENTED_EDGE('',*,*,#449,.F.);
#592=ORIENTED_EDGE('',*,*,#452,.T.);
#593=ORIENTED_EDGE('',*,*,#453,.F.);
#594=ORIENTED_EDGE('',*,*,#454,.F.);
#595=ORIENTED_EDGE('',*,*,#455,.T.);
#596=ORIENTED_EDGE('',*,*,#453,.T.);
#597=ORIENTED_EDGE('',*,*,#456,.T.);
#598=ORIENTED_EDGE('',*,*,#457,.T.);
#599=ORIENTED_EDGE('',*,*,#457,.F.);
#600=ORIENTED_EDGE('',*,*,#458,.T.);
#601=ORIENTED_EDGE('',*,*,#459,.T.);
#602=ORIENTED_EDGE('',*,*,#460,.F.);
#603=ORIENTED_EDGE('',*,*,#461,.T.);
#604=ORIENTED_EDGE('',*,*,#462,.F.);
#605=ORIENTED_EDGE('',*,*,#463,.T.);
#606=ORIENTED_EDGE('',*,*,#464,.T.);
#607=ORIENTED_EDGE('',*,*,#465,.F.);
#608=ORIENTED_EDGE('',*,*,#466,.T.);
#609=ORIENTED_EDGE('',*,*,#467,.T.);
#610=ORIENTED_EDGE('',*,*,#468,.F.);
#611=ORIENTED_EDGE('',*,*,#469,.F.);
#612=ORIENTED_EDGE('',*,*,#470,.T.);
#613=ORIENTED_EDGE('',*,*,#471,.F.);
#614=ORIENTED_EDGE('',*,*,#472,.F.);
#615=ORIENTED_EDGE('',*,*,#473,.F.);
#616=ORIENTED_EDGE('',*,*,#474,.T.);
#617=ORIENTED_EDGE('',*,*,#475,.F.);
#618=ORIENTED_EDGE('',*,*,#476,.F.);
#619=ORIENTED_EDGE('',*,*,#477,.F.);
#620=ORIENTED_EDGE('',*,*,#478,.F.);
#621=ORIENTED_EDGE('',*,*,#479,.F.);
#622=ORIENTED_EDGE('',*,*,#480,.F.);
#623=ORIENTED_EDGE('',*,*,#481,.F.);
#624=ORIENTED_EDGE('',*,*,#482,.F.);
#625=ORIENTED_EDGE('',*,*,#483,.F.);
#626=ORIENTED_EDGE('',*,*,#484,.T.);
#627=ORIENTED_EDGE('',*,*,#485,.F.);
#628=ORIENTED_EDGE('',*,*,#458,.F.);
#629=ORIENTED_EDGE('',*,*,#456,.F.);
#630=ORIENTED_EDGE('',*,*,#452,.F.);
#631=ORIENTED_EDGE('',*,*,#448,.F.);
#632=ORIENTED_EDGE('',*,*,#412,.T.);
#633=ORIENTED_EDGE('',*,*,#415,.T.);
#634=ORIENTED_EDGE('',*,*,#418,.T.);
#635=ORIENTED_EDGE('',*,*,#421,.T.);
#636=ORIENTED_EDGE('',*,*,#437,.T.);
#637=ORIENTED_EDGE('',*,*,#446,.T.);
#638=ORIENTED_EDGE('',*,*,#443,.T.);
#639=ORIENTED_EDGE('',*,*,#440,.T.);
#640=ORIENTED_EDGE('',*,*,#424,.T.);
#641=ORIENTED_EDGE('',*,*,#428,.T.);
#642=ORIENTED_EDGE('',*,*,#431,.T.);
#643=ORIENTED_EDGE('',*,*,#434,.T.);
#644=ORIENTED_EDGE('',*,*,#472,.T.);
#645=ORIENTED_EDGE('',*,*,#486,.T.);
#646=ORIENTED_EDGE('',*,*,#487,.T.);
#647=ORIENTED_EDGE('',*,*,#488,.T.);
#648=ORIENTED_EDGE('',*,*,#486,.F.);
#649=ORIENTED_EDGE('',*,*,#471,.T.);
#650=ORIENTED_EDGE('',*,*,#489,.T.);
#651=ORIENTED_EDGE('',*,*,#490,.T.);
#652=ORIENTED_EDGE('',*,*,#468,.T.);
#653=ORIENTED_EDGE('',*,*,#491,.T.);
#654=ORIENTED_EDGE('',*,*,#492,.T.);
#655=ORIENTED_EDGE('',*,*,#493,.T.);
#656=ORIENTED_EDGE('',*,*,#493,.F.);
#657=ORIENTED_EDGE('',*,*,#494,.T.);
#658=ORIENTED_EDGE('',*,*,#495,.T.);
#659=ORIENTED_EDGE('',*,*,#469,.T.);
#660=ORIENTED_EDGE('',*,*,#489,.F.);
#661=ORIENTED_EDGE('',*,*,#470,.F.);
#662=ORIENTED_EDGE('',*,*,#495,.F.);
#663=ORIENTED_EDGE('',*,*,#496,.T.);
#664=ORIENTED_EDGE('',*,*,#454,.T.);
#665=ORIENTED_EDGE('',*,*,#455,.F.);
#666=ORIENTED_EDGE('',*,*,#460,.T.);
#667=ORIENTED_EDGE('',*,*,#497,.T.);
#668=ORIENTED_EDGE('',*,*,#498,.T.);
#669=ORIENTED_EDGE('',*,*,#499,.T.);
#670=ORIENTED_EDGE('',*,*,#500,.T.);
#671=ORIENTED_EDGE('',*,*,#501,.T.);
#672=ORIENTED_EDGE('',*,*,#502,.T.);
#673=ORIENTED_EDGE('',*,*,#503,.T.);
#674=ORIENTED_EDGE('',*,*,#504,.T.);
#675=ORIENTED_EDGE('',*,*,#505,.T.);
#676=ORIENTED_EDGE('',*,*,#506,.T.);
#677=ORIENTED_EDGE('',*,*,#507,.T.);
#678=ORIENTED_EDGE('',*,*,#508,.T.);
#679=ORIENTED_EDGE('',*,*,#509,.T.);
#680=ORIENTED_EDGE('',*,*,#487,.F.);
#681=ORIENTED_EDGE('',*,*,#490,.F.);
#682=ORIENTED_EDGE('',*,*,#496,.F.);
#683=ORIENTED_EDGE('',*,*,#494,.F.);
#684=ORIENTED_EDGE('',*,*,#492,.F.);
#685=ORIENTED_EDGE('',*,*,#510,.T.);
#686=ORIENTED_EDGE('',*,*,#511,.T.);
#687=ORIENTED_EDGE('',*,*,#512,.T.);
#688=ORIENTED_EDGE('',*,*,#513,.T.);
#689=ORIENTED_EDGE('',*,*,#514,.T.);
#690=ORIENTED_EDGE('',*,*,#515,.T.);
#691=ORIENTED_EDGE('',*,*,#516,.T.);
#692=ORIENTED_EDGE('',*,*,#450,.F.);
#693=ORIENTED_EDGE('',*,*,#438,.T.);
#694=ORIENTED_EDGE('',*,*,#435,.T.);
#695=ORIENTED_EDGE('',*,*,#432,.T.);
#696=ORIENTED_EDGE('',*,*,#429,.T.);
#697=ORIENTED_EDGE('',*,*,#426,.T.);
#698=ORIENTED_EDGE('',*,*,#442,.T.);
#699=ORIENTED_EDGE('',*,*,#445,.T.);
#700=ORIENTED_EDGE('',*,*,#447,.T.);
#701=ORIENTED_EDGE('',*,*,#488,.F.);
#702=ORIENTED_EDGE('',*,*,#509,.F.);
#703=ORIENTED_EDGE('',*,*,#517,.F.);
#704=ORIENTED_EDGE('',*,*,#473,.T.);
#705=ORIENTED_EDGE('',*,*,#474,.F.);
#706=ORIENTED_EDGE('',*,*,#517,.T.);
#707=ORIENTED_EDGE('',*,*,#508,.F.);
#708=ORIENTED_EDGE('',*,*,#518,.F.);
#709=ORIENTED_EDGE('',*,*,#475,.T.);
#710=ORIENTED_EDGE('',*,*,#518,.T.);
#711=ORIENTED_EDGE('',*,*,#507,.F.);
#712=ORIENTED_EDGE('',*,*,#519,.F.);
#713=ORIENTED_EDGE('',*,*,#476,.T.);
#714=ORIENTED_EDGE('',*,*,#519,.T.);
#715=ORIENTED_EDGE('',*,*,#506,.F.);
#716=ORIENTED_EDGE('',*,*,#520,.F.);
#717=ORIENTED_EDGE('',*,*,#477,.T.);
#718=ORIENTED_EDGE('',*,*,#520,.T.);
#719=ORIENTED_EDGE('',*,*,#505,.F.);
#720=ORIENTED_EDGE('',*,*,#521,.F.);
#721=ORIENTED_EDGE('',*,*,#478,.T.);
#722=ORIENTED_EDGE('',*,*,#521,.T.);
#723=ORIENTED_EDGE('',*,*,#504,.F.);
#724=ORIENTED_EDGE('',*,*,#522,.F.);
#725=ORIENTED_EDGE('',*,*,#479,.T.);
#726=ORIENTED_EDGE('',*,*,#522,.T.);
#727=ORIENTED_EDGE('',*,*,#503,.F.);
#728=ORIENTED_EDGE('',*,*,#523,.F.);
#729=ORIENTED_EDGE('',*,*,#480,.T.);
#730=ORIENTED_EDGE('',*,*,#523,.T.);
#731=ORIENTED_EDGE('',*,*,#502,.F.);
#732=ORIENTED_EDGE('',*,*,#524,.F.);
#733=ORIENTED_EDGE('',*,*,#481,.T.);
#734=ORIENTED_EDGE('',*,*,#524,.T.);
#735=ORIENTED_EDGE('',*,*,#501,.F.);
#736=ORIENTED_EDGE('',*,*,#525,.F.);
#737=ORIENTED_EDGE('',*,*,#482,.T.);
#738=ORIENTED_EDGE('',*,*,#525,.T.);
#739=ORIENTED_EDGE('',*,*,#500,.F.);
#740=ORIENTED_EDGE('',*,*,#526,.F.);
#741=ORIENTED_EDGE('',*,*,#483,.T.);
#742=ORIENTED_EDGE('',*,*,#526,.T.);
#743=ORIENTED_EDGE('',*,*,#499,.F.);
#744=ORIENTED_EDGE('',*,*,#527,.F.);
#745=ORIENTED_EDGE('',*,*,#484,.F.);
#746=ORIENTED_EDGE('',*,*,#527,.T.);
#747=ORIENTED_EDGE('',*,*,#498,.F.);
#748=ORIENTED_EDGE('',*,*,#528,.F.);
#749=ORIENTED_EDGE('',*,*,#485,.T.);
#750=ORIENTED_EDGE('',*,*,#528,.T.);
#751=ORIENTED_EDGE('',*,*,#497,.F.);
#752=ORIENTED_EDGE('',*,*,#459,.F.);
#753=ORIENTED_EDGE('',*,*,#451,.F.);
#754=ORIENTED_EDGE('',*,*,#516,.F.);
#755=ORIENTED_EDGE('',*,*,#529,.F.);
#756=ORIENTED_EDGE('',*,*,#461,.F.);
#757=ORIENTED_EDGE('',*,*,#462,.T.);
#758=ORIENTED_EDGE('',*,*,#529,.T.);
#759=ORIENTED_EDGE('',*,*,#515,.F.);
#760=ORIENTED_EDGE('',*,*,#530,.F.);
#761=ORIENTED_EDGE('',*,*,#463,.F.);
#762=ORIENTED_EDGE('',*,*,#530,.T.);
#763=ORIENTED_EDGE('',*,*,#514,.F.);
#764=ORIENTED_EDGE('',*,*,#531,.F.);
#765=ORIENTED_EDGE('',*,*,#464,.F.);
#766=ORIENTED_EDGE('',*,*,#531,.T.);
#767=ORIENTED_EDGE('',*,*,#513,.F.);
#768=ORIENTED_EDGE('',*,*,#532,.F.);
#769=ORIENTED_EDGE('',*,*,#465,.T.);
#770=ORIENTED_EDGE('',*,*,#532,.T.);
#771=ORIENTED_EDGE('',*,*,#512,.F.);
#772=ORIENTED_EDGE('',*,*,#533,.F.);
#773=ORIENTED_EDGE('',*,*,#466,.F.);
#774=ORIENTED_EDGE('',*,*,#533,.T.);
#775=ORIENTED_EDGE('',*,*,#511,.F.);
#776=ORIENTED_EDGE('',*,*,#534,.F.);
#777=ORIENTED_EDGE('',*,*,#491,.F.);
#778=ORIENTED_EDGE('',*,*,#467,.F.);
#779=ORIENTED_EDGE('',*,*,#534,.T.);
#780=ORIENTED_EDGE('',*,*,#510,.F.);
#781=CYLINDRICAL_SURFACE('',#858,0.51747170223714);
#782=CYLINDRICAL_SURFACE('',#862,0.499665207794324);
#783=CYLINDRICAL_SURFACE('',#866,0.528069511732066);
#784=CYLINDRICAL_SURFACE('',#870,0.470237552424906);
#785=CYLINDRICAL_SURFACE('',#875,2.00000508001);
#786=CYLINDRICAL_SURFACE('',#879,2.00000508001);
#787=CYLINDRICAL_SURFACE('',#883,2.00000508001);
#788=CYLINDRICAL_SURFACE('',#887,2.00000508001);
#789=CYLINDRICAL_SURFACE('',#890,1.);
#790=CYLINDRICAL_SURFACE('',#894,1.);
#791=CYLINDRICAL_SURFACE('',#897,0.0999999999999979);
#792=CYLINDRICAL_SURFACE('',#918,0.6);
#793=CYLINDRICAL_SURFACE('',#920,0.4);
#794=CYLINDRICAL_SURFACE('',#922,2.25);
#795=CYLINDRICAL_SURFACE('',#924,0.4);
#796=CYLINDRICAL_SURFACE('',#941,1.50000000000001);
#797=CYLINDRICAL_SURFACE('',#942,3.75);
#798=CYLINDRICAL_SURFACE('',#944,9.50000000000002);
#799=CYLINDRICAL_SURFACE('',#946,3.);
#800=CYLINDRICAL_SURFACE('',#948,6.00000000000009);
#801=CYLINDRICAL_SURFACE('',#950,5.99999999999988);
#802=CYLINDRICAL_SURFACE('',#952,14.75);
#803=CYLINDRICAL_SURFACE('',#953,3.00000000000006);
#804=CYLINDRICAL_SURFACE('',#954,0.1);
#805=CYLINDRICAL_SURFACE('',#956,4.5);
#806=CYLINDRICAL_SURFACE('',#957,0.5);
#807=CYLINDRICAL_SURFACE('',#959,6.);
#808=CYLINDRICAL_SURFACE('',#960,3.5);
#809=ADVANCED_FACE('',(#40),#781,.T.);
#810=ADVANCED_FACE('',(#41),#21,.F.);
#811=ADVANCED_FACE('',(#42),#782,.T.);
#812=ADVANCED_FACE('',(#43),#22,.F.);
#813=ADVANCED_FACE('',(#44),#783,.T.);
#814=ADVANCED_FACE('',(#45),#23,.F.);
#815=ADVANCED_FACE('',(#46),#784,.T.);
#816=ADVANCED_FACE('',(#47),#24,.F.);
#817=ADVANCED_FACE('',(#48),#25,.F.);
#818=ADVANCED_FACE('',(#49),#785,.F.);
#819=ADVANCED_FACE('',(#50),#26,.F.);
#820=ADVANCED_FACE('',(#51),#786,.F.);
#821=ADVANCED_FACE('',(#52),#27,.F.);
#822=ADVANCED_FACE('',(#53),#787,.F.);
#823=ADVANCED_FACE('',(#54),#28,.F.);
#824=ADVANCED_FACE('',(#55),#788,.F.);
#825=ADVANCED_FACE('',(#56),#789,.F.);
#826=ADVANCED_FACE('',(#57),#29,.T.);
#827=ADVANCED_FACE('',(#58),#790,.F.);
#828=ADVANCED_FACE('',(#59),#791,.T.);
#829=ADVANCED_FACE('',(#60,#15,#16,#17,#18,#19),#30,.F.);
#830=ADVANCED_FACE('',(#61),#792,.T.);
#831=ADVANCED_FACE('',(#62),#793,.F.);
#832=ADVANCED_FACE('',(#63),#794,.T.);
#833=ADVANCED_FACE('',(#64),#795,.F.);
#834=ADVANCED_FACE('',(#65),#31,.T.);
#835=ADVANCED_FACE('',(#66,#20),#32,.T.);
#836=ADVANCED_FACE('',(#67),#796,.T.);
#837=ADVANCED_FACE('',(#68),#797,.F.);
#838=ADVANCED_FACE('',(#69),#33,.T.);
#839=ADVANCED_FACE('',(#70),#798,.T.);
#840=ADVANCED_FACE('',(#71),#34,.T.);
#841=ADVANCED_FACE('',(#72),#799,.T.);
#842=ADVANCED_FACE('',(#73),#35,.T.);
#843=ADVANCED_FACE('',(#74),#800,.T.);
#844=ADVANCED_FACE('',(#75),#36,.T.);
#845=ADVANCED_FACE('',(#76),#801,.T.);
#846=ADVANCED_FACE('',(#77),#37,.T.);
#847=ADVANCED_FACE('',(#78),#802,.F.);
#848=ADVANCED_FACE('',(#79),#803,.T.);
#849=ADVANCED_FACE('',(#80),#804,.T.);
#850=ADVANCED_FACE('',(#81),#38,.T.);
#851=ADVANCED_FACE('',(#82),#805,.T.);
#852=ADVANCED_FACE('',(#83),#806,.T.);
#853=ADVANCED_FACE('',(#84),#39,.T.);
#854=ADVANCED_FACE('',(#85),#807,.F.);
#855=ADVANCED_FACE('',(#86),#808,.T.);
#856=CLOSED_SHELL('',(#809,#810,#811,#812,#813,#814,#815,#816,#817,#818,
#819,#820,#821,#822,#823,#824,#825,#826,#827,#828,#829,#830,#831,#832,#833,
#834,#835,#836,#837,#838,#839,#840,#841,#842,#843,#844,#845,#846,#847,#848,
#849,#850,#851,#852,#853,#854,#855));
#857=AXIS2_PLACEMENT_3D('',#1236,#961,#962);
#858=AXIS2_PLACEMENT_3D('',#1237,#963,#964);
#859=AXIS2_PLACEMENT_3D('',#1239,#965,#966);
#860=AXIS2_PLACEMENT_3D('',#1242,#968,#969);
#861=AXIS2_PLACEMENT_3D('',#1243,#970,#971);
#862=AXIS2_PLACEMENT_3D('',#1244,#972,#973);
#863=AXIS2_PLACEMENT_3D('',#1246,#974,#975);
#864=AXIS2_PLACEMENT_3D('',#1249,#977,#978);
#865=AXIS2_PLACEMENT_3D('',#1250,#979,#980);
#866=AXIS2_PLACEMENT_3D('',#1251,#981,#982);
#867=AXIS2_PLACEMENT_3D('',#1253,#983,#984);
#868=AXIS2_PLACEMENT_3D('',#1256,#986,#987);
#869=AXIS2_PLACEMENT_3D('',#1257,#988,#989);
#870=AXIS2_PLACEMENT_3D('',#1258,#990,#991);
#871=AXIS2_PLACEMENT_3D('',#1260,#992,#993);
#872=AXIS2_PLACEMENT_3D('',#1263,#995,#996);
#873=AXIS2_PLACEMENT_3D('',#1264,#997,#998);
#874=AXIS2_PLACEMENT_3D('',#1265,#999,#1000);
#875=AXIS2_PLACEMENT_3D('',#1274,#1005,#1006);
#876=AXIS2_PLACEMENT_3D('',#1276,#1007,#1008);
#877=AXIS2_PLACEMENT_3D('',#1278,#1009,#1010);
#878=AXIS2_PLACEMENT_3D('',#1280,#1012,#1013);
#879=AXIS2_PLACEMENT_3D('',#1286,#1017,#1018);
#880=AXIS2_PLACEMENT_3D('',#1288,#1019,#1020);
#881=AXIS2_PLACEMENT_3D('',#1290,#1021,#1022);
#882=AXIS2_PLACEMENT_3D('',#1292,#1024,#1025);
#883=AXIS2_PLACEMENT_3D('',#1298,#1029,#1030);
#884=AXIS2_PLACEMENT_3D('',#1300,#1031,#1032);
#885=AXIS2_PLACEMENT_3D('',#1303,#1034,#1035);
#886=AXIS2_PLACEMENT_3D('',#1304,#1036,#1037);
#887=AXIS2_PLACEMENT_3D('',#1310,#1041,#1042);
#888=AXIS2_PLACEMENT_3D('',#1311,#1043,#1044);
#889=AXIS2_PLACEMENT_3D('',#1312,#1045,#1046);
#890=AXIS2_PLACEMENT_3D('',#1313,#1047,#1048);
#891=AXIS2_PLACEMENT_3D('',#1316,#1049,#1050);
#892=AXIS2_PLACEMENT_3D('',#1320,#1052,#1053);
#893=AXIS2_PLACEMENT_3D('',#1322,#1055,#1056);
#894=AXIS2_PLACEMENT_3D('',#1328,#1060,#1061);
#895=AXIS2_PLACEMENT_3D('',#1330,#1062,#1063);
#896=AXIS2_PLACEMENT_3D('',#1332,#1064,#1065);
#897=AXIS2_PLACEMENT_3D('',#1334,#1067,#1068);
#898=AXIS2_PLACEMENT_3D('',#1336,#1069,#1070);
#899=AXIS2_PLACEMENT_3D('',#1339,#1072,#1073);
#900=AXIS2_PLACEMENT_3D('',#1340,#1074,#1075);
#901=AXIS2_PLACEMENT_3D('',#1342,#1076,#1077);
#902=AXIS2_PLACEMENT_3D('',#1346,#1079,#1080);
#903=AXIS2_PLACEMENT_3D('',#1348,#1081,#1082);
#904=AXIS2_PLACEMENT_3D('',#1352,#1084,#1085);
#905=AXIS2_PLACEMENT_3D('',#1354,#1086,#1087);
#906=AXIS2_PLACEMENT_3D('',#1356,#1088,#1089);
#907=AXIS2_PLACEMENT_3D('',#1358,#1090,#1091);
#908=AXIS2_PLACEMENT_3D('',#1362,#1093,#1094);
#909=AXIS2_PLACEMENT_3D('',#1364,#1095,#1096);
#910=AXIS2_PLACEMENT_3D('',#1366,#1097,#1098);
#911=AXIS2_PLACEMENT_3D('',#1368,#1099,#1100);
#912=AXIS2_PLACEMENT_3D('',#1372,#1102,#1103);
#913=AXIS2_PLACEMENT_3D('',#1376,#1105,#1106);
#914=AXIS2_PLACEMENT_3D('',#1380,#1108,#1109);
#915=AXIS2_PLACEMENT_3D('',#1384,#1111,#1112);
#916=AXIS2_PLACEMENT_3D('',#1388,#1114,#1115);
#917=AXIS2_PLACEMENT_3D('',#1389,#1116,#1117);
#918=AXIS2_PLACEMENT_3D('',#1390,#1118,#1119);
#919=AXIS2_PLACEMENT_3D('',#1394,#1121,#1122);
#920=AXIS2_PLACEMENT_3D('',#1396,#1124,#1125);
#921=AXIS2_PLACEMENT_3D('',#1399,#1127,#1128);
#922=AXIS2_PLACEMENT_3D('',#1400,#1129,#1130);
#923=AXIS2_PLACEMENT_3D('',#1404,#1132,#1133);
#924=AXIS2_PLACEMENT_3D('',#1406,#1135,#1136);
#925=AXIS2_PLACEMENT_3D('',#1408,#1137,#1138);
#926=AXIS2_PLACEMENT_3D('',#1410,#1140,#1141);
#927=AXIS2_PLACEMENT_3D('',#1412,#1143,#1144);
#928=AXIS2_PLACEMENT_3D('',#1414,#1145,#1146);
#929=AXIS2_PLACEMENT_3D('',#1416,#1147,#1148);
#930=AXIS2_PLACEMENT_3D('',#1420,#1150,#1151);
#931=AXIS2_PLACEMENT_3D('',#1424,#1153,#1154);
#932=AXIS2_PLACEMENT_3D('',#1428,#1156,#1157);
#933=AXIS2_PLACEMENT_3D('',#1432,#1159,#1160);
#934=AXIS2_PLACEMENT_3D('',#1436,#1162,#1163);
#935=AXIS2_PLACEMENT_3D('',#1437,#1164,#1165);
#936=AXIS2_PLACEMENT_3D('',#1439,#1166,#1167);
#937=AXIS2_PLACEMENT_3D('',#1441,#1168,#1169);
#938=AXIS2_PLACEMENT_3D('',#1445,#1171,#1172);
#939=AXIS2_PLACEMENT_3D('',#1447,#1173,#1174);
#940=AXIS2_PLACEMENT_3D('',#1450,#1176,#1177);
#941=AXIS2_PLACEMENT_3D('',#1451,#1178,#1179);
#942=AXIS2_PLACEMENT_3D('',#1453,#1181,#1182);
#943=AXIS2_PLACEMENT_3D('',#1455,#1184,#1185);
#944=AXIS2_PLACEMENT_3D('',#1457,#1187,#1188);
#945=AXIS2_PLACEMENT_3D('',#1459,#1190,#1191);
#946=AXIS2_PLACEMENT_3D('',#1461,#1193,#1194);
#947=AXIS2_PLACEMENT_3D('',#1463,#1196,#1197);
#948=AXIS2_PLACEMENT_3D('',#1465,#1199,#1200);
#949=AXIS2_PLACEMENT_3D('',#1467,#1202,#1203);
#950=AXIS2_PLACEMENT_3D('',#1469,#1205,#1206);
#951=AXIS2_PLACEMENT_3D('',#1471,#1208,#1209);
#952=AXIS2_PLACEMENT_3D('',#1473,#1211,#1212);
#953=AXIS2_PLACEMENT_3D('',#1475,#1214,#1215);
#954=AXIS2_PLACEMENT_3D('',#1476,#1216,#1217);
#955=AXIS2_PLACEMENT_3D('',#1478,#1219,#1220);
#956=AXIS2_PLACEMENT_3D('',#1480,#1222,#1223);
#957=AXIS2_PLACEMENT_3D('',#1482,#1225,#1226);
#958=AXIS2_PLACEMENT_3D('',#1484,#1228,#1229);
#959=AXIS2_PLACEMENT_3D('',#1486,#1231,#1232);
#960=AXIS2_PLACEMENT_3D('',#1488,#1234,#1235);
#961=DIRECTION('axis',(0.,0.,1.));
#962=DIRECTION('refdir',(1.,0.,0.));
#963=DIRECTION('center_axis',(0.,0.,1.));
#964=DIRECTION('ref_axis',(-1.,0.,0.));
#965=DIRECTION('center_axis',(0.,0.,1.));
#966=DIRECTION('ref_axis',(-1.,0.,0.));
#967=DIRECTION('',(0.,0.,-1.));
#968=DIRECTION('center_axis',(0.,0.,1.));
#969=DIRECTION('ref_axis',(-1.,0.,0.));
#970=DIRECTION('center_axis',(0.,0.,1.));
#971=DIRECTION('ref_axis',(-1.,0.,0.));
#972=DIRECTION('center_axis',(0.,0.,1.));
#973=DIRECTION('ref_axis',(-1.,0.,0.));
#974=DIRECTION('center_axis',(0.,0.,1.));
#975=DIRECTION('ref_axis',(-1.,0.,0.));
#976=DIRECTION('',(0.,0.,-1.));
#977=DIRECTION('center_axis',(0.,0.,1.));
#978=DIRECTION('ref_axis',(-1.,0.,0.));
#979=DIRECTION('center_axis',(0.,0.,1.));
#980=DIRECTION('ref_axis',(-1.,0.,0.));
#981=DIRECTION('center_axis',(0.,0.,1.));
#982=DIRECTION('ref_axis',(-1.,0.,0.));
#983=DIRECTION('center_axis',(0.,0.,1.));
#984=DIRECTION('ref_axis',(-1.,0.,0.));
#985=DIRECTION('',(0.,0.,-1.));
#986=DIRECTION('center_axis',(0.,0.,1.));
#987=DIRECTION('ref_axis',(-1.,0.,0.));
#988=DIRECTION('center_axis',(0.,0.,1.));
#989=DIRECTION('ref_axis',(-1.,0.,0.));
#990=DIRECTION('center_axis',(0.,0.,1.));
#991=DIRECTION('ref_axis',(-1.,0.,0.));
#992=DIRECTION('center_axis',(0.,0.,1.));
#993=DIRECTION('ref_axis',(-1.,0.,0.));
#994=DIRECTION('',(0.,0.,-1.));
#995=DIRECTION('center_axis',(0.,0.,1.));
#996=DIRECTION('ref_axis',(-1.,0.,0.));
#997=DIRECTION('center_axis',(0.,0.,1.));
#998=DIRECTION('ref_axis',(-1.,0.,0.));
#999=DIRECTION('center_axis',(0.,-1.,0.));
#1000=DIRECTION('ref_axis',(1.,0.,0.));
#1001=DIRECTION('',(1.,0.,0.));
#1002=DIRECTION('',(0.,0.,1.));
#1003=DIRECTION('',(-1.,0.,0.));
#1004=DIRECTION('',(0.,0.,1.));
#1005=DIRECTION('center_axis',(0.,0.,1.));
#1006=DIRECTION('ref_axis',(0.,-1.,0.));
#1007=DIRECTION('center_axis',(0.,0.,1.));
#1008=DIRECTION('ref_axis',(0.,-1.,0.));
#1009=DIRECTION('center_axis',(0.,0.,-1.));
#1010=DIRECTION('ref_axis',(0.,-1.,0.));
#1011=DIRECTION('',(0.,0.,1.));
#1012=DIRECTION('center_axis',(1.,0.,0.));
#1013=DIRECTION('ref_axis',(0.,1.,0.));
#1014=DIRECTION('',(0.,1.,0.));
#1015=DIRECTION('',(0.,-1.,0.));
#1016=DIRECTION('',(0.,0.,1.));
#1017=DIRECTION('center_axis',(0.,0.,1.));
#1018=DIRECTION('ref_axis',(1.,0.,0.));
#1019=DIRECTION('center_axis',(0.,0.,1.));
#1020=DIRECTION('ref_axis',(1.,0.,0.));
#1021=DIRECTION('center_axis',(0.,0.,-1.));
#1022=DIRECTION('ref_axis',(1.,0.,0.));
#1023=DIRECTION('',(0.,0.,1.));
#1024=DIRECTION('center_axis',(1.83964008449191E-15,1.,0.));
#1025=DIRECTION('ref_axis',(-1.,1.83964008449191E-15,0.));
#1026=DIRECTION('',(-1.,1.83964008449191E-15,0.));
#1027=DIRECTION('',(1.,-1.83964008449191E-15,0.));
#1028=DIRECTION('',(0.,0.,-1.));
#1029=DIRECTION('center_axis',(0.,0.,1.));
#1030=DIRECTION('ref_axis',(-1.,0.,0.));
#1031=DIRECTION('center_axis',(0.,0.,1.));
#1032=DIRECTION('ref_axis',(-1.,0.,0.));
#1033=DIRECTION('',(0.,0.,1.));
#1034=DIRECTION('center_axis',(0.,0.,-1.));
#1035=DIRECTION('ref_axis',(-1.,0.,0.));
#1036=DIRECTION('center_axis',(-1.,0.,0.));
#1037=DIRECTION('ref_axis',(0.,-1.,0.));
#1038=DIRECTION('',(0.,-1.,0.));
#1039=DIRECTION('',(0.,0.,1.));
#1040=DIRECTION('',(0.,1.,0.));
#1041=DIRECTION('center_axis',(0.,0.,1.));
#1042=DIRECTION('ref_axis',(0.,1.,0.));
#1043=DIRECTION('center_axis',(0.,0.,1.));
#1044=DIRECTION('ref_axis',(0.,1.,0.));
#1045=DIRECTION('center_axis',(0.,0.,-1.));
#1046=DIRECTION('ref_axis',(0.,1.,0.));
#1047=DIRECTION('center_axis',(0.,0.,1.));
#1048=DIRECTION('ref_axis',(-0.213200716355612,0.977008420918394,0.));
#1049=DIRECTION('center_axis',(0.,0.,-1.));
#1050=DIRECTION('ref_axis',(-0.213200716355612,0.977008420918394,0.));
#1051=DIRECTION('',(0.,0.,1.));
#1052=DIRECTION('center_axis',(0.,0.,1.));
#1053=DIRECTION('ref_axis',(-0.213200716355612,0.977008420918394,0.));
#1054=DIRECTION('',(0.,0.,-1.));
#1055=DIRECTION('center_axis',(0.,-1.,0.));
#1056=DIRECTION('ref_axis',(0.,0.,-1.));
#1057=DIRECTION('',(1.,0.,0.));
#1058=DIRECTION('',(0.,0.,-1.));
#1059=DIRECTION('',(1.,0.,0.));
#1060=DIRECTION('center_axis',(0.,0.,-1.));
#1061=DIRECTION('ref_axis',(0.180822081330786,0.983515823412721,0.));
#1062=DIRECTION('center_axis',(0.,0.,1.));
#1063=DIRECTION('ref_axis',(0.180822081330786,0.983515823412721,0.));
#1064=DIRECTION('center_axis',(0.,0.,-1.));
#1065=DIRECTION('ref_axis',(0.180822081330786,0.983515823412721,0.));
#1066=DIRECTION('',(0.,0.,1.));
#1067=DIRECTION('center_axis',(0.,0.,1.));
#1068=DIRECTION('ref_axis',(-1.,-1.2212453270877E-13,0.));
#1069=DIRECTION('center_axis',(0.,0.,1.));
#1070=DIRECTION('ref_axis',(-1.,-1.2212453270877E-13,0.));
#1071=DIRECTION('',(0.,0.,1.));
#1072=DIRECTION('center_axis',(0.,0.,1.));
#1073=DIRECTION('ref_axis',(-1.,-1.2212453270877E-13,0.));
#1074=DIRECTION('center_axis',(0.,0.,1.));
#1075=DIRECTION('ref_axis',(-1.,0.,0.));
#1076=DIRECTION('center_axis',(0.,0.,-1.));
#1077=DIRECTION('ref_axis',(0.70710678118654,-0.707106781186555,0.));
#1078=DIRECTION('',(1.,0.,0.));
#1079=DIRECTION('center_axis',(0.,0.,-1.));
#1080=DIRECTION('ref_axis',(-0.645481408846594,-0.763775982100391,0.));
#1081=DIRECTION('center_axis',(0.,0.,-1.));
#1082=DIRECTION('ref_axis',(-0.720550359179133,-0.693402610239407,0.));
#1083=DIRECTION('',(0.605107212207559,-0.796143995602803,0.));
#1084=DIRECTION('center_axis',(0.,0.,1.));
#1085=DIRECTION('ref_axis',(0.303824708736017,0.95272794981646,0.));
#1086=DIRECTION('center_axis',(0.,0.,-1.));
#1087=DIRECTION('ref_axis',(-0.883263930645758,-0.468876133771175,0.));
#1088=DIRECTION('center_axis',(0.,0.,1.));
#1089=DIRECTION('ref_axis',(0.985080710431026,-0.172092980498061,0.));
#1090=DIRECTION('center_axis',(0.,0.,-1.));
#1091=DIRECTION('ref_axis',(0.948683298050513,-0.316227766016841,0.));
#1092=DIRECTION('',(0.,1.,0.));
#1093=DIRECTION('center_axis',(0.,0.,-1.));
#1094=DIRECTION('ref_axis',(0.948683298050514,0.316227766016839,0.));
#1095=DIRECTION('center_axis',(0.,0.,1.));
#1096=DIRECTION('ref_axis',(0.947762491462165,-0.318976895366152,0.));
#1097=DIRECTION('center_axis',(0.,0.,1.));
#1098=DIRECTION('ref_axis',(-0.514209216154041,0.857664784179837,0.));
#1099=DIRECTION('center_axis',(0.,0.,1.));
#1100=DIRECTION('ref_axis',(0.514209216154037,-0.85766478417984,0.));
#1101=DIRECTION('',(-0.61553730267675,-0.788107752159202,0.));
#1102=DIRECTION('center_axis',(0.,0.,1.));
#1103=DIRECTION('ref_axis',(-2.3373116307898E-16,1.,0.));
#1104=DIRECTION('',(-1.,0.,0.));
#1105=DIRECTION('center_axis',(0.,0.,1.));
#1106=DIRECTION('ref_axis',(0.934007268819157,0.357254001787213,0.));
#1107=DIRECTION('',(-0.728370047634373,0.685183970703563,0.));
#1108=DIRECTION('center_axis',(0.,0.,1.));
#1109=DIRECTION('ref_axis',(1.,6.66133814775084E-15,0.));
#1110=DIRECTION('',(0.,1.,0.));
#1111=DIRECTION('center_axis',(0.,0.,1.));
#1112=DIRECTION('ref_axis',(0.828215504431438,-0.560409741367313,0.));
#1113=DIRECTION('',(0.71163457165122,0.702549810640345,0.));
#1114=DIRECTION('center_axis',(0.,0.,1.));
#1115=DIRECTION('ref_axis',(-0.555457063122629,0.831545218870979,0.));
#1116=DIRECTION('center_axis',(0.,0.,1.));
#1117=DIRECTION('ref_axis',(0.138791832690961,-0.990321577659643,0.));
#1118=DIRECTION('center_axis',(0.,0.,1.));
#1119=DIRECTION('ref_axis',(0.947762491462165,-0.318976895366152,0.));
#1120=DIRECTION('',(0.,0.,1.));
#1121=DIRECTION('center_axis',(0.,0.,-1.));
#1122=DIRECTION('ref_axis',(0.947762491462165,-0.318976895366152,0.));
#1123=DIRECTION('',(0.,0.,-1.));
#1124=DIRECTION('center_axis',(0.,0.,1.));
#1125=DIRECTION('ref_axis',(0.948683298050514,0.316227766016839,0.));
#1126=DIRECTION('',(0.,0.,1.));
#1127=DIRECTION('center_axis',(0.,0.,1.));
#1128=DIRECTION('ref_axis',(0.948683298050514,0.316227766016839,0.));
#1129=DIRECTION('center_axis',(0.,0.,1.));
#1130=DIRECTION('ref_axis',(0.985080710431026,-0.172092980498061,0.));
#1131=DIRECTION('',(0.,0.,1.));
#1132=DIRECTION('center_axis',(0.,0.,-1.));
#1133=DIRECTION('ref_axis',(0.985080710431026,-0.172092980498061,0.));
#1134=DIRECTION('',(0.,0.,-1.));
#1135=DIRECTION('center_axis',(0.,0.,1.));
#1136=DIRECTION('ref_axis',(0.948683298050513,-0.316227766016841,0.));
#1137=DIRECTION('center_axis',(0.,0.,1.));
#1138=DIRECTION('ref_axis',(0.948683298050513,-0.316227766016841,0.));
#1139=DIRECTION('',(0.,0.,-1.));
#1140=DIRECTION('center_axis',(-1.,0.,0.));
#1141=DIRECTION('ref_axis',(0.,0.,1.));
#1142=DIRECTION('',(0.,1.,0.));
#1143=DIRECTION('center_axis',(0.,0.,1.));
#1144=DIRECTION('ref_axis',(-1.,0.,0.));
#1145=DIRECTION('center_axis',(0.,0.,1.));
#1146=DIRECTION('ref_axis',(0.138791832690961,-0.990321577659643,0.));
#1147=DIRECTION('center_axis',(0.,0.,-1.));
#1148=DIRECTION('ref_axis',(-0.555457063122629,0.831545218870979,0.));
#1149=DIRECTION('',(0.71163457165122,0.702549810640345,0.));
#1150=DIRECTION('center_axis',(0.,0.,1.));
#1151=DIRECTION('ref_axis',(0.828215504431438,-0.560409741367313,0.));
#1152=DIRECTION('',(0.,1.,0.));
#1153=DIRECTION('center_axis',(0.,0.,1.));
#1154=DIRECTION('ref_axis',(1.,6.66133814775084E-15,0.));
#1155=DIRECTION('',(-0.728370047634373,0.685183970703563,0.));
#1156=DIRECTION('center_axis',(0.,0.,1.));
#1157=DIRECTION('ref_axis',(0.934007268819157,0.357254001787213,0.));
#1158=DIRECTION('',(-1.,0.,0.));
#1159=DIRECTION('center_axis',(0.,0.,1.));
#1160=DIRECTION('ref_axis',(-2.3373116307898E-16,1.,0.));
#1161=DIRECTION('',(-0.61553730267675,-0.788107752159202,0.));
#1162=DIRECTION('center_axis',(0.,0.,-1.));
#1163=DIRECTION('ref_axis',(0.514209216154037,-0.85766478417984,0.));
#1164=DIRECTION('center_axis',(0.,0.,1.));
#1165=DIRECTION('ref_axis',(-0.514209216154041,0.857664784179837,0.));
#1166=DIRECTION('center_axis',(0.,0.,1.));
#1167=DIRECTION('ref_axis',(-0.883263930645758,-0.468876133771175,0.));
#1168=DIRECTION('center_axis',(0.,0.,-1.));
#1169=DIRECTION('ref_axis',(0.303824708736017,0.95272794981646,0.));
#1170=DIRECTION('',(0.605107212207559,-0.796143995602803,0.));
#1171=DIRECTION('center_axis',(0.,0.,1.));
#1172=DIRECTION('ref_axis',(-0.720550359179133,-0.693402610239407,0.));
#1173=DIRECTION('center_axis',(0.,0.,1.));
#1174=DIRECTION('ref_axis',(-0.645481408846594,-0.763775982100391,0.));
#1175=DIRECTION('',(1.,0.,0.));
#1176=DIRECTION('center_axis',(0.,0.,1.));
#1177=DIRECTION('ref_axis',(0.70710678118654,-0.707106781186555,0.));
#1178=DIRECTION('center_axis',(0.,0.,1.));
#1179=DIRECTION('ref_axis',(-0.514209216154041,0.857664784179837,0.));
#1180=DIRECTION('',(0.,0.,1.));
#1181=DIRECTION('center_axis',(0.,0.,1.));
#1182=DIRECTION('ref_axis',(0.514209216154037,-0.85766478417984,0.));
#1183=DIRECTION('',(0.,0.,1.));
#1184=DIRECTION('center_axis',(-0.788107752159202,0.61553730267675,0.));
#1185=DIRECTION('ref_axis',(-0.61553730267675,-0.788107752159202,0.));
#1186=DIRECTION('',(0.,0.,1.));
#1187=DIRECTION('center_axis',(0.,0.,1.));
#1188=DIRECTION('ref_axis',(-2.3373116307898E-16,1.,0.));
#1189=DIRECTION('',(0.,0.,1.));
#1190=DIRECTION('center_axis',(0.,1.,0.));
#1191=DIRECTION('ref_axis',(-1.,0.,0.));
#1192=DIRECTION('',(0.,0.,1.));
#1193=DIRECTION('center_axis',(0.,0.,1.));
#1194=DIRECTION('ref_axis',(0.934007268819157,0.357254001787213,0.));
#1195=DIRECTION('',(0.,0.,1.));
#1196=DIRECTION('center_axis',(0.685183970703563,0.728370047634373,0.));
#1197=DIRECTION('ref_axis',(-0.728370047634373,0.685183970703563,0.));
#1198=DIRECTION('',(0.,0.,1.));
#1199=DIRECTION('center_axis',(0.,0.,1.));
#1200=DIRECTION('ref_axis',(1.,6.66133814775084E-15,0.));
#1201=DIRECTION('',(0.,0.,1.));
#1202=DIRECTION('center_axis',(1.,0.,0.));
#1203=DIRECTION('ref_axis',(0.,1.,0.));
#1204=DIRECTION('',(0.,0.,1.));
#1205=DIRECTION('center_axis',(0.,0.,1.));
#1206=DIRECTION('ref_axis',(0.828215504431438,-0.560409741367313,0.));
#1207=DIRECTION('',(0.,0.,1.));
#1208=DIRECTION('center_axis',(0.702549810640345,-0.71163457165122,0.));
#1209=DIRECTION('ref_axis',(0.71163457165122,0.702549810640345,0.));
#1210=DIRECTION('',(0.,0.,1.));
#1211=DIRECTION('center_axis',(0.,0.,1.));
#1212=DIRECTION('ref_axis',(-0.555457063122629,0.831545218870979,0.));
#1213=DIRECTION('',(0.,0.,1.));
#1214=DIRECTION('center_axis',(0.,0.,1.));
#1215=DIRECTION('ref_axis',(0.138791832690961,-0.990321577659643,0.));
#1216=DIRECTION('center_axis',(0.,0.,1.));
#1217=DIRECTION('ref_axis',(0.70710678118654,-0.707106781186555,0.));
#1218=DIRECTION('',(0.,0.,1.));
#1219=DIRECTION('center_axis',(0.,-1.,0.));
#1220=DIRECTION('ref_axis',(1.,0.,0.));
#1221=DIRECTION('',(0.,0.,1.));
#1222=DIRECTION('center_axis',(0.,0.,1.));
#1223=DIRECTION('ref_axis',(-0.645481408846594,-0.763775982100391,0.));
#1224=DIRECTION('',(0.,0.,1.));
#1225=DIRECTION('center_axis',(0.,0.,1.));
#1226=DIRECTION('ref_axis',(-0.720550359179133,-0.693402610239407,0.));
#1227=DIRECTION('',(0.,0.,1.));
#1228=DIRECTION('center_axis',(-0.796143995602803,-0.605107212207559,0.));
#1229=DIRECTION('ref_axis',(0.605107212207559,-0.796143995602803,0.));
#1230=DIRECTION('',(0.,0.,1.));
#1231=DIRECTION('center_axis',(0.,0.,1.));
#1232=DIRECTION('ref_axis',(0.303824708736017,0.95272794981646,0.));
#1233=DIRECTION('',(0.,0.,1.));
#1234=DIRECTION('center_axis',(0.,0.,1.));
#1235=DIRECTION('ref_axis',(-0.883263930645758,-0.468876133771175,0.));
#1236=CARTESIAN_POINT('',(0.,0.,0.));
#1237=CARTESIAN_POINT('Origin',(60.5831741286927,1.79460209850413,-0.9));
#1238=CARTESIAN_POINT('',(61.1006458309298,1.79460209850413,8.3));
#1239=CARTESIAN_POINT('Origin',(60.5831741286927,1.79460209850413,8.3));
#1240=CARTESIAN_POINT('',(61.1006458309298,1.79460209850413,3.1));
#1241=CARTESIAN_POINT('',(61.1006458309298,1.79460209850413,-0.9));
#1242=CARTESIAN_POINT('Origin',(60.5831741286927,1.79460209850413,3.1));
#1243=CARTESIAN_POINT('Origin',(60.5831741286927,1.79460209850413,3.1));
#1244=CARTESIAN_POINT('Origin',(60.570020870252,23.6195678098659,-0.9));
#1245=CARTESIAN_POINT('',(61.0696860780463,23.6195678098659,8.3));
#1246=CARTESIAN_POINT('Origin',(60.570020870252,23.6195678098659,8.3));
#1247=CARTESIAN_POINT('',(61.0696860780463,23.6195678098659,3.1));
#1248=CARTESIAN_POINT('',(61.0696860780463,23.6195678098659,-0.9));
#1249=CARTESIAN_POINT('Origin',(60.570020870252,23.6195678098659,3.1));
#1250=CARTESIAN_POINT('Origin',(60.570020870252,23.6195678098659,3.1));
#1251=CARTESIAN_POINT('Origin',(6.48339086808825,23.631422750268,-0.9));
#1252=CARTESIAN_POINT('',(7.01146037982032,23.631422750268,8.3));
#1253=CARTESIAN_POINT('Origin',(6.48339086808825,23.631422750268,8.3));
#1254=CARTESIAN_POINT('',(7.01146037982032,23.631422750268,3.1));
#1255=CARTESIAN_POINT('',(7.01146037982032,23.631422750268,-0.9));
#1256=CARTESIAN_POINT('Origin',(6.48339086808825,23.631422750268,3.1));
#1257=CARTESIAN_POINT('Origin',(6.48339086808825,23.631422750268,3.1));
#1258=CARTESIAN_POINT('Origin',(6.4736684739537,1.77214577224875,-0.9));
#1259=CARTESIAN_POINT('',(6.9439060263786,1.77214577224875,8.3));
#1260=CARTESIAN_POINT('Origin',(6.4736684739537,1.77214577224875,8.3));
#1261=CARTESIAN_POINT('',(6.9439060263786,1.77214577224875,3.1));
#1262=CARTESIAN_POINT('',(6.9439060263786,1.77214577224875,-0.9));
#1263=CARTESIAN_POINT('Origin',(6.4736684739537,1.77214577224875,3.1));
#1264=CARTESIAN_POINT('Origin',(6.4736684739537,1.77214577224875,3.1));
#1265=CARTESIAN_POINT('Origin',(61.94412496825,6.985013970028,1.600050800102));
#1266=CARTESIAN_POINT('',(61.94412496825,6.985013970028,8.3));
#1267=CARTESIAN_POINT('',(63.15112522225,6.985013970028,8.3));
#1268=CARTESIAN_POINT('',(47.3442401888379,6.985013970028,8.3));
#1269=CARTESIAN_POINT('',(61.94412496825,6.985013970028,10.3));
#1270=CARTESIAN_POINT('',(61.94412496825,6.985013970028,1.600050800102));
#1271=CARTESIAN_POINT('',(63.15112522225,6.985013970028,10.3));
#1272=CARTESIAN_POINT('',(47.3442401888379,6.985013970028,10.3));
#1273=CARTESIAN_POINT('',(63.15112522225,6.985013970028,1.600050800102));
#1274=CARTESIAN_POINT('Origin',(63.15112522225,8.985019050038,1.600050800102));
#1275=CARTESIAN_POINT('',(65.15113030226,8.985019050038,8.3));
#1276=CARTESIAN_POINT('Origin',(63.15112522225,8.985019050038,8.3));
#1277=CARTESIAN_POINT('',(65.15113030226,8.985019050038,10.3));
#1278=CARTESIAN_POINT('Origin',(63.15112522225,8.985019050038,10.3));
#1279=CARTESIAN_POINT('',(65.15113030226,8.985019050038,1.600050800102));
#1280=CARTESIAN_POINT('Origin',(65.15113030226,8.985019050038,1.600050800102));
#1281=CARTESIAN_POINT('',(65.15113030226,17.685034290069,8.3));
#1282=CARTESIAN_POINT('',(65.15113030226,10.9663446050731,8.3));
#1283=CARTESIAN_POINT('',(65.15113030226,17.685034290069,10.3));
#1284=CARTESIAN_POINT('',(65.15113030226,10.9663446050731,10.3));
#1285=CARTESIAN_POINT('',(65.15113030226,17.685034290069,1.600050800102));
#1286=CARTESIAN_POINT('Origin',(63.15112522225,17.685034290069,1.600050800102));
#1287=CARTESIAN_POINT('',(63.15112522225,19.685039370079,8.3));
#1288=CARTESIAN_POINT('Origin',(63.15112522225,17.685034290069,8.3));
#1289=CARTESIAN_POINT('',(63.15112522225,19.685039370079,10.3));
#1290=CARTESIAN_POINT('Origin',(63.15112522225,17.685034290069,10.3));
#1291=CARTESIAN_POINT('',(63.15112522225,19.685039370079,1.600050800102));
#1292=CARTESIAN_POINT('Origin',(63.15112522225,19.685039370079,1.600050800102));
#1293=CARTESIAN_POINT('',(61.94412496825,19.685039370079,8.3));
#1294=CARTESIAN_POINT('',(47.9477403158379,19.685039370079,8.3));
#1295=CARTESIAN_POINT('',(61.94412496825,19.685039370079,10.3));
#1296=CARTESIAN_POINT('',(47.9477403158379,19.685039370079,10.3));
#1297=CARTESIAN_POINT('',(61.94412496825,19.685039370079,1.600050800102));
#1298=CARTESIAN_POINT('Origin',(61.94412496825,8.985019050038,1.600050800102));
#1299=CARTESIAN_POINT('',(59.94411988824,8.985019050038,8.3));
#1300=CARTESIAN_POINT('Origin',(61.94412496825,8.985019050038,8.3));
#1301=CARTESIAN_POINT('',(59.94411988824,8.985019050038,10.3));
#1302=CARTESIAN_POINT('',(59.94411988824,8.985019050038,1.600050800102));
#1303=CARTESIAN_POINT('Origin',(61.94412496825,8.985019050038,10.3));
#1304=CARTESIAN_POINT('Origin',(59.94411988824,17.685034290069,1.600050800102));
#1305=CARTESIAN_POINT('',(59.94411988824,17.685034290069,8.3));
#1306=CARTESIAN_POINT('',(59.94411988824,15.3163522250886,8.3));
#1307=CARTESIAN_POINT('',(59.94411988824,17.685034290069,10.3));
#1308=CARTESIAN_POINT('',(59.94411988824,17.685034290069,1.600050800102));
#1309=CARTESIAN_POINT('',(59.94411988824,15.3163522250886,10.3));
#1310=CARTESIAN_POINT('Origin',(61.94412496825,17.685034290069,1.600050800102));
#1311=CARTESIAN_POINT('Origin',(61.94412496825,17.685034290069,8.3));
#1312=CARTESIAN_POINT('Origin',(61.94412496825,17.685034290069,10.3));
#1313=CARTESIAN_POINT('Origin',(29.0396783629654,-5.67307420320598,8.3));
#1314=CARTESIAN_POINT('',(28.6230805725149,-4.76398329411507,8.3));
#1315=CARTESIAN_POINT('',(29.0396783629654,-4.67307420320598,8.3));
#1316=CARTESIAN_POINT('Origin',(29.0396783629654,-5.67307420320598,8.3));
#1317=CARTESIAN_POINT('',(29.0396783629654,-4.67307420320598,10.3));
#1318=CARTESIAN_POINT('',(29.0396783629654,-4.67307420320598,8.3));
#1319=CARTESIAN_POINT('',(28.6230805725149,-4.76398329411507,10.3));
#1320=CARTESIAN_POINT('Origin',(29.0396783629654,-5.67307420320598,10.3));
#1321=CARTESIAN_POINT('',(28.6230805725149,-4.76398329411507,8.3));
#1322=CARTESIAN_POINT('Origin',(28.6814207934698,-4.67307420320598,10.3));
#1323=CARTESIAN_POINT('',(57.7078507246392,-4.67307420320598,8.3));
#1324=CARTESIAN_POINT('',(28.6814207934698,-4.67307420320598,8.3));
#1325=CARTESIAN_POINT('',(57.7078507246392,-4.67307420320598,10.3));
#1326=CARTESIAN_POINT('',(57.7078507246392,-4.67307420320598,8.3));
#1327=CARTESIAN_POINT('',(28.6814207934698,-4.67307420320598,10.3));
#1328=CARTESIAN_POINT('Origin',(57.7078507246392,-5.67307420320598,8.3));
#1329=CARTESIAN_POINT('',(58.0635334810617,-4.73846745339957,10.3));
#1330=CARTESIAN_POINT('Origin',(57.7078507246392,-5.67307420320598,10.3));
#1331=CARTESIAN_POINT('',(58.0635334810617,-4.73846745339957,8.3));
#1332=CARTESIAN_POINT('Origin',(57.7078507246392,-5.67307420320598,8.3));
#1333=CARTESIAN_POINT('',(58.0635334810617,-4.73846745339957,8.3));
#1334=CARTESIAN_POINT('Origin',(58.0991017567039,-4.64500677841893,8.3));
#1335=CARTESIAN_POINT('',(58.112980939973,-4.7440389361849,8.3));
#1336=CARTESIAN_POINT('Origin',(58.0991017567039,-4.64500677841893,8.3));
#1337=CARTESIAN_POINT('',(58.112980939973,-4.7440389361849,10.3));
#1338=CARTESIAN_POINT('',(58.112980939973,-4.7440389361849,8.3));
#1339=CARTESIAN_POINT('Origin',(58.0991017567039,-4.64500677841893,10.3));
#1340=CARTESIAN_POINT('Origin',(32.7443554094258,12.9476701601082,8.3));
#1341=CARTESIAN_POINT('',(28.5814207934698,-4.77307420320598,8.3));
#1342=CARTESIAN_POINT('Origin',(28.5814207934698,-4.67307420320598,8.3));
#1343=CARTESIAN_POINT('',(7.23590454554821,-4.77307420320598,8.3));
#1344=CARTESIAN_POINT('',(46.5083566333474,-4.77307420320598,8.3));
#1345=CARTESIAN_POINT('',(4.37740669299936,-3.74855834602315,8.3));
#1346=CARTESIAN_POINT('Origin',(7.23590454554821,-0.273074203205976,8.3));
#1347=CARTESIAN_POINT('',(4.29694556770338,-3.66494704736946,8.3));
#1348=CARTESIAN_POINT('Origin',(4.69501756550479,-3.36239344126568,8.3));
#1349=CARTESIAN_POINT('',(-0.364188776327538,2.46774158339392,8.3));
#1350=CARTESIAN_POINT('',(5.52257433190482,-5.27751579844618,8.3));
#1351=CARTESIAN_POINT('',(-1.77919069578682,3.80679483295715,8.3));
#1352=CARTESIAN_POINT('Origin',(-5.14105274994436,-1.16290168985143,8.3));
#1353=CARTESIAN_POINT('',(-3.14880562613004,5.63041012159095,8.3));
#1354=CARTESIAN_POINT('Origin',(0.181895502471747,6.70578447126215,8.3));
#1355=CARTESIAN_POINT('',(-3.22407221335584,6.70893140964307,8.3));
#1356=CARTESIAN_POINT('Origin',(-1.00764061488604,6.32172220352244,8.3));
#1357=CARTESIAN_POINT('',(-3.21810449752825,6.7777686018423,8.3));
#1358=CARTESIAN_POINT('Origin',(-3.61810449752825,6.7777686018423,8.3));
#1359=CARTESIAN_POINT('',(-3.21810449752825,19.8828480373433,8.3));
#1360=CARTESIAN_POINT('',(-3.21810449752825,6.5777686018423,8.3));
#1361=CARTESIAN_POINT('',(-3.23929899445463,20.011325237037,8.3));
#1362=CARTESIAN_POINT('Origin',(-3.61810449752825,19.8828480373433,8.3));
#1363=CARTESIAN_POINT('',(-3.2397482347215,20.3954271737973,8.3));
#1364=CARTESIAN_POINT('Origin',(-2.6710907398442,20.2040410365776,8.3));
#1365=CARTESIAN_POINT('',(-2.58941832175931,21.2034590070178,8.3));
#1366=CARTESIAN_POINT('Origin',(-1.81810449752824,19.9169618307481,8.3));
#1367=CARTESIAN_POINT('',(-1.56229881173994,22.1114370626544,8.3));
#1368=CARTESIAN_POINT('Origin',(-4.51770288233695,24.4197019476922,8.3));
#1369=CARTESIAN_POINT('',(3.81129398405451,28.9915564654852,8.3));
#1370=CARTESIAN_POINT('',(3.81129398405451,28.9915564654852,8.3));
#1371=CARTESIAN_POINT('',(9.15998648576833,30.6403470986354,8.3));
#1372=CARTESIAN_POINT('Origin',(9.15998648576833,21.1403470986354,8.3));
#1373=CARTESIAN_POINT('',(57.4779244457958,30.6403470986354,8.3));
#1374=CARTESIAN_POINT('',(57.4779244457958,30.6403470986354,8.3));
#1375=CARTESIAN_POINT('',(60.2799462522532,28.712109103997,8.3));
#1376=CARTESIAN_POINT('Origin',(57.4779244457958,27.6403470986354,8.3));
#1377=CARTESIAN_POINT('',(67.7609215616317,21.6746912641735,8.3));
#1378=CARTESIAN_POINT('',(67.7609215616317,21.6746912641735,8.3));
#1379=CARTESIAN_POINT('',(68.7916285350431,18.3122328159696,8.3));
#1380=CARTESIAN_POINT('Origin',(62.791628535043,18.3122328159696,8.3));
#1381=CARTESIAN_POINT('',(68.7916285350431,7.0558995788995,8.3));
#1382=CARTESIAN_POINT('',(68.7916285350431,7.0558995788995,8.3));
#1383=CARTESIAN_POINT('',(67.7609215616317,3.69344113069565,8.3));
#1384=CARTESIAN_POINT('Origin',(62.7916285350432,7.05589957889946,8.3));
#1385=CARTESIAN_POINT('',(60.6787657799137,-3.29830351125804,8.3));
#1386=CARTESIAN_POINT('',(60.6787657799137,-3.29830351125804,8.3));
#1387=CARTESIAN_POINT('',(59.5853635296307,-4.10386653330157,8.3));
#1388=CARTESIAN_POINT('Origin',(68.8717574609725,-15.563595489605,8.3));
#1389=CARTESIAN_POINT('Origin',(57.6966054419001,-1.77307420320591,8.3));
#1390=CARTESIAN_POINT('Origin',(-2.6710907398442,20.2040410365776,8.3));
#1391=CARTESIAN_POINT('',(-3.23929899445463,20.011325237037,10.3));
#1392=CARTESIAN_POINT('',(-3.23929899445463,20.011325237037,8.3));
#1393=CARTESIAN_POINT('',(-3.2397482347215,20.3954271737973,10.3));
#1394=CARTESIAN_POINT('Origin',(-2.6710907398442,20.2040410365776,10.3));
#1395=CARTESIAN_POINT('',(-3.2397482347215,20.3954271737973,8.3));
#1396=CARTESIAN_POINT('Origin',(-3.61810449752825,19.8828480373433,8.3));
#1397=CARTESIAN_POINT('',(-3.21810449752825,19.8828480373433,10.3));
#1398=CARTESIAN_POINT('',(-3.21810449752825,19.8828480373433,8.3));
#1399=CARTESIAN_POINT('Origin',(-3.61810449752825,19.8828480373433,10.3));
#1400=CARTESIAN_POINT('Origin',(-1.00764061488604,6.32172220352244,8.3));
#1401=CARTESIAN_POINT('',(-3.14880562613004,5.63041012159095,10.3));
#1402=CARTESIAN_POINT('',(-3.14880562613004,5.63041012159095,8.3));
#1403=CARTESIAN_POINT('',(-3.22407221335584,6.70893140964307,10.3));
#1404=CARTESIAN_POINT('Origin',(-1.00764061488604,6.32172220352244,10.3));
#1405=CARTESIAN_POINT('',(-3.22407221335584,6.70893140964307,8.3));
#1406=CARTESIAN_POINT('Origin',(-3.61810449752825,6.7777686018423,8.3));
#1407=CARTESIAN_POINT('',(-3.21810449752825,6.7777686018423,10.3));
#1408=CARTESIAN_POINT('Origin',(-3.61810449752825,6.7777686018423,10.3));
#1409=CARTESIAN_POINT('',(-3.21810449752825,6.7777686018423,8.3));
#1410=CARTESIAN_POINT('Origin',(-3.21810449752825,6.5777686018423,8.3));
#1411=CARTESIAN_POINT('',(-3.21810449752825,6.5777686018423,10.3));
#1412=CARTESIAN_POINT('Origin',(32.7443554094258,12.9476701601082,10.3));
#1413=CARTESIAN_POINT('',(59.5853635296307,-4.10386653330157,10.3));
#1414=CARTESIAN_POINT('Origin',(57.6966054419001,-1.77307420320591,10.3));
#1415=CARTESIAN_POINT('',(60.6787657799137,-3.29830351125803,10.3));
#1416=CARTESIAN_POINT('Origin',(68.8717574609725,-15.563595489605,10.3));
#1417=CARTESIAN_POINT('',(67.7609215616317,3.69344113069565,10.3));
#1418=CARTESIAN_POINT('',(60.6787657799137,-3.29830351125804,10.3));
#1419=CARTESIAN_POINT('',(68.7916285350431,7.0558995788995,10.3));
#1420=CARTESIAN_POINT('Origin',(62.7916285350432,7.05589957889946,10.3));
#1421=CARTESIAN_POINT('',(68.7916285350431,18.3122328159696,10.3));
#1422=CARTESIAN_POINT('',(68.7916285350431,7.0558995788995,10.3));
#1423=CARTESIAN_POINT('',(67.7609215616317,21.6746912641735,10.3));
#1424=CARTESIAN_POINT('Origin',(62.791628535043,18.3122328159696,10.3));
#1425=CARTESIAN_POINT('',(60.2799462522532,28.712109103997,10.3));
#1426=CARTESIAN_POINT('',(67.7609215616317,21.6746912641735,10.3));
#1427=CARTESIAN_POINT('',(57.4779244457958,30.6403470986354,10.3));
#1428=CARTESIAN_POINT('Origin',(57.4779244457958,27.6403470986354,10.3));
#1429=CARTESIAN_POINT('',(9.15998648576833,30.6403470986354,10.3));
#1430=CARTESIAN_POINT('',(57.4779244457958,30.6403470986354,10.3));
#1431=CARTESIAN_POINT('',(3.81129398405451,28.9915564654852,10.3));
#1432=CARTESIAN_POINT('Origin',(9.15998648576833,21.1403470986354,10.3));
#1433=CARTESIAN_POINT('',(-1.56229881173994,22.1114370626544,10.3));
#1434=CARTESIAN_POINT('',(3.81129398405451,28.9915564654852,10.3));
#1435=CARTESIAN_POINT('',(-2.58941832175931,21.2034590070178,10.3));
#1436=CARTESIAN_POINT('Origin',(-4.51770288233695,24.4197019476922,10.3));
#1437=CARTESIAN_POINT('Origin',(-1.81810449752824,19.9169618307481,10.3));
#1438=CARTESIAN_POINT('',(-1.77919069578682,3.80679483295715,10.3));
#1439=CARTESIAN_POINT('Origin',(0.181895502471747,6.70578447126215,10.3));
#1440=CARTESIAN_POINT('',(-0.364188776327538,2.46774158339392,10.3));
#1441=CARTESIAN_POINT('Origin',(-5.14105274994436,-1.16290168985143,10.3));
#1442=CARTESIAN_POINT('',(4.29694556770338,-3.66494704736946,10.3));
#1443=CARTESIAN_POINT('',(5.52257433190482,-5.27751579844618,10.3));
#1444=CARTESIAN_POINT('',(4.37740669299936,-3.74855834602315,10.3));
#1445=CARTESIAN_POINT('Origin',(4.69501756550479,-3.36239344126568,10.3));
#1446=CARTESIAN_POINT('',(7.23590454554821,-4.77307420320598,10.3));
#1447=CARTESIAN_POINT('Origin',(7.23590454554821,-0.273074203205976,10.3));
#1448=CARTESIAN_POINT('',(28.5814207934698,-4.77307420320598,10.3));
#1449=CARTESIAN_POINT('',(46.5083566333474,-4.77307420320598,10.3));
#1450=CARTESIAN_POINT('Origin',(28.5814207934698,-4.67307420320598,10.3));
#1451=CARTESIAN_POINT('Origin',(-1.81810449752824,19.9169618307481,8.3));
#1452=CARTESIAN_POINT('',(-2.58941832175931,21.2034590070178,8.3));
#1453=CARTESIAN_POINT('Origin',(-4.51770288233695,24.4197019476922,8.3));
#1454=CARTESIAN_POINT('',(-1.56229881173994,22.1114370626544,8.3));
#1455=CARTESIAN_POINT('Origin',(3.81129398405451,28.9915564654852,8.3));
#1456=CARTESIAN_POINT('',(3.81129398405451,28.9915564654852,8.3));
#1457=CARTESIAN_POINT('Origin',(9.15998648576833,21.1403470986354,8.3));
#1458=CARTESIAN_POINT('',(9.15998648576833,30.6403470986354,8.3));
#1459=CARTESIAN_POINT('Origin',(57.4779244457958,30.6403470986354,8.3));
#1460=CARTESIAN_POINT('',(57.4779244457958,30.6403470986354,8.3));
#1461=CARTESIAN_POINT('Origin',(57.4779244457958,27.6403470986354,8.3));
#1462=CARTESIAN_POINT('',(60.2799462522532,28.712109103997,8.3));
#1463=CARTESIAN_POINT('Origin',(67.7609215616317,21.6746912641735,8.3));
#1464=CARTESIAN_POINT('',(67.7609215616317,21.6746912641735,8.3));
#1465=CARTESIAN_POINT('Origin',(62.791628535043,18.3122328159696,8.3));
#1466=CARTESIAN_POINT('',(68.7916285350431,18.3122328159696,8.3));
#1467=CARTESIAN_POINT('Origin',(68.7916285350431,7.0558995788995,8.3));
#1468=CARTESIAN_POINT('',(68.7916285350431,7.0558995788995,8.3));
#1469=CARTESIAN_POINT('Origin',(62.7916285350432,7.05589957889946,8.3));
#1470=CARTESIAN_POINT('',(67.7609215616317,3.69344113069565,8.3));
#1471=CARTESIAN_POINT('Origin',(60.6787657799137,-3.29830351125804,8.3));
#1472=CARTESIAN_POINT('',(60.6787657799137,-3.29830351125804,8.3));
#1473=CARTESIAN_POINT('Origin',(68.8717574609725,-15.563595489605,8.3));
#1474=CARTESIAN_POINT('',(59.5853635296307,-4.10386653330157,8.3));
#1475=CARTESIAN_POINT('Origin',(57.6966054419001,-1.77307420320591,8.3));
#1476=CARTESIAN_POINT('Origin',(28.5814207934698,-4.67307420320598,8.3));
#1477=CARTESIAN_POINT('',(28.5814207934698,-4.77307420320598,8.3));
#1478=CARTESIAN_POINT('Origin',(7.23590454554821,-4.77307420320598,8.3));
#1479=CARTESIAN_POINT('',(7.23590454554821,-4.77307420320598,8.3));
#1480=CARTESIAN_POINT('Origin',(7.23590454554821,-0.273074203205976,8.3));
#1481=CARTESIAN_POINT('',(4.37740669299936,-3.74855834602315,8.3));
#1482=CARTESIAN_POINT('Origin',(4.69501756550479,-3.36239344126568,8.3));
#1483=CARTESIAN_POINT('',(4.29694556770338,-3.66494704736946,8.3));
#1484=CARTESIAN_POINT('Origin',(-0.364188776327539,2.46774158339393,8.3));
#1485=CARTESIAN_POINT('',(-0.364188776327538,2.46774158339392,8.3));
#1486=CARTESIAN_POINT('Origin',(-5.14105274994436,-1.16290168985143,8.3));
#1487=CARTESIAN_POINT('',(-1.77919069578682,3.80679483295715,8.3));
#1488=CARTESIAN_POINT('Origin',(0.181895502471747,6.70578447126215,8.3));
#1489=UNCERTAINTY_MEASURE_WITH_UNIT(LENGTH_MEASURE(0.01),#1493,
'DISTANCE_ACCURACY_VALUE',
'Maximum model space distance between geometric entities at asserted c
onnectivities');
#1490=UNCERTAINTY_MEASURE_WITH_UNIT(LENGTH_MEASURE(0.01),#1493,
'DISTANCE_ACCURACY_VALUE',
'Maximum model space distance between geometric entities at asserted c
onnectivities');
#1491=(
GEOMETRIC_REPRESENTATION_CONTEXT(3)
GLOBAL_UNCERTAINTY_ASSIGNED_CONTEXT((#1489))
GLOBAL_UNIT_ASSIGNED_CONTEXT((#1493,#1494,#1495))
REPRESENTATION_CONTEXT('','3D')
);
#1492=(
GEOMETRIC_REPRESENTATION_CONTEXT(3)
GLOBAL_UNCERTAINTY_ASSIGNED_CONTEXT((#1490))
GLOBAL_UNIT_ASSIGNED_CONTEXT((#1493,#1494,#1495))
REPRESENTATION_CONTEXT('','3D')
);
#1493=(
LENGTH_UNIT()
NAMED_UNIT(*)
SI_UNIT(.MILLI.,.METRE.)
);
#1494=(
NAMED_UNIT(*)
PLANE_ANGLE_UNIT()
SI_UNIT($,.RADIAN.)
);
#1495=(
NAMED_UNIT(*)
SI_UNIT($,.STERADIAN.)
SOLID_ANGLE_UNIT()
);
#1496=SHAPE_DEFINITION_REPRESENTATION(#1497,#1498);
#1497=PRODUCT_DEFINITION_SHAPE('',$,#1500);
#1498=SHAPE_REPRESENTATION('',(#857),#1491);
#1499=PRODUCT_DEFINITION_CONTEXT('part definition',#1504,'design');
#1500=PRODUCT_DEFINITION('USB Hub PCB Final Assembly',
'USB Hub PCB Final Assembly',#1501,#1499);
#1501=PRODUCT_DEFINITION_FORMATION('',$,#1506);
#1502=PRODUCT_RELATED_PRODUCT_CATEGORY('USB Hub PCB Final Assembly',
'USB Hub PCB Final Assembly',(#1506));
#1503=APPLICATION_PROTOCOL_DEFINITION('international standard',
'automotive_design',2009,#1504);
#1504=APPLICATION_CONTEXT(
'Core Data for Automotive Mechanical Design Process');
#1505=PRODUCT_CONTEXT('part definition',#1504,'mechanical');
#1506=PRODUCT('USB Hub PCB Final Assembly','USB Hub PCB Final Assembly',
$,(#1505));
#1507=PRESENTATION_STYLE_ASSIGNMENT((#1508));
#1508=SURFACE_STYLE_USAGE(.BOTH.,#1509);
#1509=SURFACE_SIDE_STYLE('',(#1510));
#1510=SURFACE_STYLE_FILL_AREA(#1511);
#1511=FILL_AREA_STYLE('Steel - Satin',(#1512));
#1512=FILL_AREA_STYLE_COLOUR('Steel - Satin',#1513);
#1513=COLOUR_RGB('Steel - Satin',0.627450980392157,0.627450980392157,0.627450980392157);
ENDSEC;
END-ISO-10303-21;
